<svg width="29" height="30" viewBox="0 0 29 30" fill="none" xmlns="http://www.w3.org/2000/svg">
<path d="M13.5 29C14.3284 29 15 28.3284 15 27.5C15 26.6716 14.3284 26 13.5 26C12.6716 26 12 26.6716 12 27.5C12 28.3284 12.6716 29 13.5 29Z" stroke="white" stroke-width="2" stroke-linecap="round" stroke-linejoin="round"/>
<path d="M24.5 29C25.3284 29 26 28.3284 26 27.5C26 26.6716 25.3284 26 24.5 26C23.6716 26 23 26.6716 23 27.5C23 28.3284 23.6716 29 24.5 29Z" stroke="white" stroke-width="2" stroke-linecap="round" stroke-linejoin="round"/>
<path d="M5 7H9.18182L11.9836 20.3897C12.0792 20.8501 12.3411 21.2636 12.7233 21.5579C13.1056 21.8523 13.5839 22.0086 14.0745 21.9996H24.2364C24.727 22.0086 25.2053 21.8523 25.5876 21.5579C25.9698 21.2636 26.2317 20.8501 26.3273 20.3897L28 11.9999H10.2273" stroke="white" stroke-width="2" stroke-linecap="round" stroke-linejoin="round"/>
</svg>
