<svg width="27" height="26" viewBox="0 0 27 26" fill="none" xmlns="http://www.w3.org/2000/svg">
<path d="M10.5 24C11.3284 24 12 23.3284 12 22.5C12 21.6716 11.3284 21 10.5 21C9.67157 21 9 21.6716 9 22.5C9 23.3284 9.67157 24 10.5 24Z" stroke="#222222" stroke-width="2.5" stroke-linecap="round" stroke-linejoin="round"/>
<path d="M21.5 24C22.3284 24 23 23.3284 23 22.5C23 21.6716 22.3284 21 21.5 21C20.6716 21 20 21.6716 20 22.5C20 23.3284 20.6716 24 21.5 24Z" stroke="#222222" stroke-width="2.5" stroke-linecap="round" stroke-linejoin="round"/>
<path d="M2 2H6.18182L8.98364 15.3897C9.07924 15.8501 9.34109 16.2636 9.72334 16.5579C10.1056 16.8523 10.5839 17.0086 11.0745 16.9996H21.2364C21.727 17.0086 22.2053 16.8523 22.5876 16.5579C22.9698 16.2636 23.2317 15.8501 23.3273 15.3897L25 6.99988H7.22727" stroke="#222222" stroke-width="2.5" stroke-linecap="round" stroke-linejoin="round"/>
</svg>
