<svg width="26" height="21" viewBox="0 0 26 21" fill="none" xmlns="http://www.w3.org/2000/svg">
<path d="M16.9667 1H1V14.8378H16.9667V1Z" stroke="#BABABA" stroke-width="1.5" stroke-linecap="round" stroke-linejoin="round"/>
<path d="M16.9664 6.32227H21.2242L24.4175 9.5156V14.8378H16.9664V6.32227Z" stroke="#BABABA" stroke-width="1.5" stroke-linecap="round" stroke-linejoin="round"/>
<path d="M5.79014 20.1599C7.25983 20.1599 8.45125 18.9684 8.45125 17.4988C8.45125 16.0291 7.25983 14.8376 5.79014 14.8376C4.32045 14.8376 3.12903 16.0291 3.12903 17.4988C3.12903 18.9684 4.32045 20.1599 5.79014 20.1599Z" stroke="#BABABA" stroke-width="1.5" stroke-linecap="round" stroke-linejoin="round"/>
<path d="M19.6275 20.1599C21.0972 20.1599 22.2887 18.9684 22.2887 17.4988C22.2887 16.0291 21.0972 14.8376 19.6275 14.8376C18.1579 14.8376 16.9664 16.0291 16.9664 17.4988C16.9664 18.9684 18.1579 20.1599 19.6275 20.1599Z" stroke="#BABABA" stroke-width="1.5" stroke-linecap="round" stroke-linejoin="round"/>
</svg>
