<svg width="15" height="15" viewBox="0 0 15 15" fill="none" xmlns="http://www.w3.org/2000/svg">
<path d="M9.15207 7.50012L14.7604 1.89159C14.9146 1.7372 14.9998 1.53122 15 1.31159C15 1.09183 14.9149 0.88561 14.7604 0.731464L14.2689 0.240123C14.1144 0.0853665 13.9084 0.000610352 13.6885 0.000610352C13.469 0.000610352 13.263 0.0853665 13.1085 0.240123L7.50024 5.84829L1.89171 0.240123C1.73744 0.0853665 1.53134 0.000610352 1.31159 0.000610352C1.09207 0.000610352 0.885976 0.0853665 0.731707 0.240123L0.24 0.731464C-0.08 1.05146 -0.08 1.57195 0.24 1.89159L5.84841 7.50012L0.24 13.1084C0.0856098 13.2631 0.000609756 13.469 0.000609756 13.6887C0.000609756 13.9083 0.0856098 14.1143 0.24 14.2688L0.731585 14.7601C0.885854 14.9148 1.09207 14.9996 1.31146 14.9996C1.53122 14.9996 1.73732 14.9148 1.89159 14.7601L7.50012 9.15183L13.1084 14.7601C13.2629 14.9148 13.4689 14.9996 13.6884 14.9996H13.6887C13.9083 14.9996 14.1143 14.9148 14.2688 14.7601L14.7602 14.2688C14.9145 14.1144 14.9996 13.9083 14.9996 13.6887C14.9996 13.469 14.9145 13.2631 14.7602 13.1085L9.15207 7.50012Z" fill="white"/>
</svg>
