<svg width="28" height="25" viewBox="0 0 28 25" fill="none" xmlns="http://www.w3.org/2000/svg">
<path d="M25.8409 2.21018C25.1568 1.50949 24.3445 0.953651 23.4504 0.574421C22.5563 0.195191 21.598 0 20.6302 0C19.6625 0 18.7042 0.195191 17.8101 0.574421C16.916 0.953651 16.1037 1.50949 15.4195 2.21018L13.9996 3.66368L12.5798 2.21018C11.1978 0.795496 9.32345 0.000733281 7.36905 0.000733296C5.41466 0.000733311 3.54031 0.795496 2.15835 2.21018C0.77638 3.62487 1.45614e-08 5.54359 0 7.54426C-1.45614e-08 9.54493 0.77638 11.4637 2.15835 12.8783L3.57823 14.3318L13.9996 25L24.4211 14.3318L25.8409 12.8783C26.5254 12.178 27.0684 11.3464 27.4389 10.4312C27.8093 9.51594 28 8.53496 28 7.54426C28 6.55356 27.8093 5.57258 27.4389 4.65734C27.0684 3.7421 26.5254 2.91054 25.8409 2.21018V2.21018Z" fill="#FF2727"/>
</svg>
