<svg width="27" height="24" viewBox="0 0 27 24" fill="none" xmlns="http://www.w3.org/2000/svg">
<path d="M24.0723 2.93727C23.4614 2.3231 22.7361 1.8359 21.9378 1.50349C21.1396 1.17109 20.2839 1 19.4199 1C18.5558 1 17.7001 1.17109 16.9019 1.50349C16.1036 1.8359 15.3783 2.3231 14.7674 2.93727L13.4997 4.2113L12.2319 2.93727C10.998 1.69727 9.3245 1.00064 7.57951 1.00064C5.83452 1.00064 4.16099 1.69727 2.92709 2.93727C1.6932 4.17728 1 5.85908 1 7.61271C1 9.36634 1.6932 11.0481 2.92709 12.2881L4.19485 13.5622L13.4997 22.913L22.8045 13.5622L24.0723 12.2881C24.6834 11.6743 25.1682 10.9454 25.499 10.1432C25.8298 9.34093 26 8.48107 26 7.61271C26 6.74434 25.8298 5.88448 25.499 5.08226C25.1682 4.28003 24.6834 3.55116 24.0723 2.93727V2.93727Z" stroke="white" stroke-width="2" stroke-linecap="round" stroke-linejoin="round"/>
</svg>
