<svg width="55" height="70" viewBox="0 0 55 70" fill="none" xmlns="http://www.w3.org/2000/svg">
<path d="M49.0089 33.3036L49.0077 33.3009C47.9768 30.9773 46.5734 28.8437 44.8571 26.9828C43.9951 28.7306 42.8183 30.3983 41.4157 31.9627L41.39 31.9914L41.3637 32.0196C40.3794 33.0757 39.1999 33.3669 38.4798 33.4324C37.6061 33.512 36.2625 33.3498 35.1089 32.3081C34.035 31.3488 33.5609 30 33.6311 28.7345L33.6317 28.7227L33.6325 28.711C33.8621 24.9689 32.7573 20.4008 29.8988 15.0315L29.8956 15.0255C28.0923 11.6242 25.7508 8.88062 22.9216 6.78101C22.8168 8.81211 22.4582 10.7509 21.7954 12.529L49.0089 33.3036ZM49.0089 33.3036C50.3348 36.2861 50.9999 39.4408 50.9999 42.7025L51 42.7108C51.0064 45.8256 50.3793 48.909 49.157 51.7728L49.1557 51.7757C47.9764 54.5448 46.2866 57.0373 44.1246 59.1758L44.1194 59.1809L44.1143 59.186C41.9748 61.3175 39.4416 63.0109 36.6562 64.172L36.6537 64.1731C33.7543 65.384 30.6847 66 27.5 66C24.3154 66 21.2486 65.3841 18.3535 64.1683L18.3482 64.1661M49.0089 33.3036L18.3482 64.1661M46.9375 62.0197C44.43 64.5178 41.4606 66.5029 38.1953 67.8641C34.8047 69.2802 31.2109 70 27.5 70L46.9375 62.0197ZM46.9375 62.0197C49.4687 59.516 51.4531 56.5899 52.8359 53.343L46.9375 62.0197ZM17.4681 20.0459L17.4664 20.048C16.1782 21.617 14.718 23.0362 13.1132 24.279L13.1041 24.2861L13.1041 24.2861C10.2902 26.4523 8.00129 29.2279 6.40876 32.4055C4.82665 35.6039 4.00226 39.1248 4 42.6947L17.4681 20.0459ZM17.4681 20.0459C19.3228 17.784 20.7798 15.2562 21.7948 12.5309L17.4681 20.0459ZM18.3482 64.1661C15.5571 62.9987 13.049 61.3176 10.8761 59.1687L18.3482 64.1661ZM5.84272 51.7644C4.61942 48.8939 4.00028 45.8539 4 42.6969L10.8754 59.1679C8.73652 57.0489 7.02741 54.5348 5.84272 51.7644Z" stroke="#FF2727" stroke-width="8"/>
<path d="M39.8532 50.8394C39.1087 49.1301 38.0263 47.5959 36.6738 46.3328L35.5578 45.2883C35.5199 45.2538 35.4743 45.2294 35.425 45.217C35.3756 45.2047 35.3241 45.205 35.2749 45.2177C35.2256 45.2305 35.1802 45.2553 35.1426 45.2902C35.105 45.325 35.0764 45.3687 35.0592 45.4174L34.5606 46.8766C34.25 47.792 33.6785 48.7269 32.8693 49.6462C32.8156 49.7049 32.7542 49.7206 32.7121 49.7245C32.6699 49.7284 32.6047 49.7206 32.5471 49.6658C32.4934 49.6188 32.4666 49.5484 32.4704 49.478C32.6123 47.123 31.922 44.4668 30.4109 41.5759C29.1606 39.174 27.4233 37.3002 25.2525 35.9936L23.6686 35.043C23.4615 34.9178 23.1969 35.0821 23.2084 35.3286L23.2927 37.2063C23.3503 38.4894 23.2045 39.6239 22.8594 40.5666C22.4375 41.7207 21.8315 42.7925 21.0568 43.7549C20.5177 44.4237 19.9066 45.0286 19.2351 45.5583C17.6178 46.8264 16.3027 48.4513 15.3884 50.3113C14.4762 52.1875 14.0011 54.2531 14 56.3474C14 58.1938 14.3567 59.9815 15.0624 61.6676C15.7437 63.2909 16.7271 64.7642 17.958 66.0059C19.2006 67.2577 20.6426 68.2435 22.2496 68.9281C23.9141 69.6401 25.6783 70 27.5 70C29.3217 70 31.0859 69.6401 32.7504 68.932C34.3534 68.2515 35.8111 67.2589 37.042 66.0098C38.2846 64.758 39.2588 63.2949 39.9376 61.6715C40.6422 59.9901 41.0037 58.1799 41 56.3513C41 54.4422 40.6164 52.588 39.8532 50.8394Z" fill="#FF2727"/>
</svg>
