<svg width="48" height="48" viewBox="0 0 48 48" fill="none" xmlns="http://www.w3.org/2000/svg">
<path fill-rule="evenodd" clip-rule="evenodd" d="M21.8242 14.2679H31.6721C36.8858 14.2679 38.9712 16.9327 38.6236 20.8719C38.1602 27.3599 34.221 30.9515 29.0074 30.9515H26.3427C25.6475 30.9515 25.1841 31.415 24.9524 32.6894L23.7938 40.1044C23.6779 40.5678 23.4462 40.9154 23.0986 40.9154H16.9581C16.3788 40.9154 16.1471 40.4519 16.3788 39.5251L20.0863 15.6582C20.2022 14.7314 20.7815 14.2679 21.8242 14.2679Z" fill="#1F9CD8"/>
<path fill-rule="evenodd" clip-rule="evenodd" d="M15.6837 6.04199H25.5317C28.3123 6.04199 31.5563 6.15785 33.7576 8.01158C35.2638 9.28603 35.9589 11.3715 35.8431 13.5728C35.2638 21.1036 30.7453 25.2745 24.7207 25.2745H19.8546C19.0436 25.2745 18.4643 25.8538 18.2326 27.2441L16.8423 35.8176C16.7264 36.3969 16.4947 36.7445 16.0313 36.7445H10.0067C9.3115 36.7445 9.07979 36.281 9.3115 35.1224L13.7141 7.66401C13.83 6.62128 14.4093 6.04199 15.6837 6.04199Z" fill="#233E81"/>
<path fill-rule="evenodd" clip-rule="evenodd" d="M18.3484 26.4331L20.0863 15.5424C20.2021 14.6155 20.7814 14.1521 21.8241 14.1521H31.6721C33.2941 14.1521 34.5686 14.3838 35.6113 14.8472C34.5686 21.567 30.2818 25.2745 24.6047 25.2745H19.7387C19.1594 25.2745 18.696 25.6221 18.3484 26.4331Z" fill="#27326E"/>
</svg>
