<svg width="20" height="20" viewBox="0 0 20 20" fill="none" xmlns="http://www.w3.org/2000/svg">
<circle cx="10" cy="10" r="10" fill="black"/>
<path d="M9.35515 11.614C9.10015 12.99 8.79015 14.31 7.86615 15C7.58215 12.92 8.28515 11.356 8.61115 9.69697C8.05515 8.73297 8.67815 6.79097 9.85115 7.26997C11.2961 7.85797 8.60115 10.856 10.4111 11.23C12.2991 11.622 13.0711 7.85597 11.8991 6.62997C10.2071 4.86197 6.97215 6.58997 7.37015 9.12197C7.46715 9.74197 8.08815 9.92897 7.61815 10.783C6.53515 10.536 6.21215 9.65597 6.25315 8.48297C6.32015 6.56297 7.92815 5.21997 9.54215 5.03297C11.5821 4.79797 13.4961 5.80497 13.7611 7.78097C14.0581 10.011 12.8401 12.427 10.6581 12.253C10.0681 12.206 9.81815 11.903 9.35515 11.613V11.614Z" fill="#FFD704"/>
</svg>
