<svg width="48" height="48" viewBox="0 0 48 48" fill="none" xmlns="http://www.w3.org/2000/svg">
<path d="M17.1155 17.6606L32.4095 8.96523C31.8346 8.62199 31.1446 8.27875 30.4546 8.04993L17.1155 15.4868L11.2508 12.1688C10.7909 12.6264 10.4459 13.0841 9.98591 13.6562L17.1155 17.6606ZM35.6293 11.3679C35.1694 10.9103 34.7094 10.567 34.1344 10.1094L17.1155 19.7201L8.95098 15.1435C8.72099 15.7156 8.49101 16.2877 8.14603 16.8597L17.1155 21.7795L35.6293 11.3679ZM17.1155 23.9533L7.57106 18.4615C7.45607 19.0336 7.22608 19.6056 7.11109 20.2921L17.1155 25.8984L38.0442 14.2282C37.6992 13.7706 37.3542 13.1985 36.8942 12.7409L17.1155 23.9533ZM40.804 23.3813C40.804 32.5343 33.2145 40.0856 23.7851 40.0856C14.4706 40.0856 6.76611 32.6487 6.76611 23.3813V22.2371L17.0005 28.0722L38.8491 15.7156C40.114 18.1183 40.804 20.7498 40.804 23.3813Z" fill="#2C9E48"/>
</svg>
