<svg width="14" height="8" viewBox="0 0 14 8" fill="none" xmlns="http://www.w3.org/2000/svg">
<path d="M13.9998 1.69833C14.0043 1.53783 13.9443 1.38023 13.8281 1.24742C13.7118 1.11461 13.545 1.0132 13.351 0.957292C13.157 0.90138 12.9453 0.893744 12.7455 0.935445C12.5456 0.977146 12.3676 1.06611 12.2359 1.18997L7.0161 5.91601L1.79814 1.18997C1.71695 1.10429 1.61388 1.03254 1.49528 0.979198C1.37668 0.925861 1.24513 0.892092 1.10893 0.880006C0.972724 0.867919 0.834802 0.877776 0.703737 0.908958C0.572674 0.940141 0.451283 0.991977 0.347244 1.06122C0.243205 1.13047 0.158812 1.21563 0.0991688 1.31137C0.0395269 1.40711 0.00602814 1.51138 0.000741922 1.61763C-0.00454335 1.72389 0.0184354 1.82985 0.0683889 1.92887C0.118342 2.02789 0.194116 2.11785 0.290967 2.19311L6.25959 7.60399C6.35307 7.68897 6.46911 7.7572 6.59989 7.80398C6.73066 7.85077 6.873 7.875 7.01702 7.875C7.16104 7.875 7.30338 7.85077 7.43415 7.80398C7.56493 7.7572 7.68108 7.68897 7.77457 7.60399L13.7489 2.19311C13.9055 2.05642 13.9944 1.8811 14 1.69833L13.9998 1.69833Z" fill="black"/>
</svg>
