<svg width="48" height="48" viewBox="0 0 48 48" fill="none" xmlns="http://www.w3.org/2000/svg">
<path d="M12.8163 34.4441L12.3546 35.2275C12.1899 34.7113 11.8913 34.1757 11.6989 33.7971C11.3296 34.5595 10.7442 34.5749 10.1809 34.579C10.3055 32.7521 8.01177 30.9149 9.01988 28.831C9.22099 28.4139 9.09068 27.9039 8.65614 27.6854C7.11704 26.9035 7.82964 30.1469 6.29157 30.2444C6.58605 29.8765 6.69738 29.1065 6.7415 29.0398C6.41418 29.1249 5.63027 29.6226 5.27833 28.9849C6.17716 28.4954 6.43573 27.7592 6.57682 27.02C6.75586 26.0847 6.83795 25.6517 7.02008 25.2669C7.20939 24.856 7.5131 24.4999 8.1626 23.6575C8.00869 23.6811 6.2772 24.0454 5.88935 23.8638C8.88188 22.0261 8.20724 19.6887 12.7722 17.6053C11.5758 16.7167 10.3512 16.0082 11.229 14.3095C12.4793 15.8117 14.8551 15.292 16.1387 14.5938C14.8705 14.3398 13.237 13.2235 12.8481 11.9799C13.3268 11.906 13.9455 12.4241 14.3021 12.6658C14.4734 12.2071 14.5417 11.6731 15.0978 11.5571C14.3565 13.146 15.8222 13.972 17.2202 13.9786C17.4362 13.9786 18.3407 13.8889 18.3407 13.8889C18.197 13.5913 17.6122 12.7797 18.0375 12.4508C18.3792 12.772 18.7865 13.028 19.1585 13.3127C21.8765 15.4162 17.8661 17.3667 16.2254 18.2517C13.6505 19.643 14.3395 21.2976 15.4154 21.7208C15.4107 21.9091 15.2953 21.9917 15.1168 22.0497C14.3647 22.3011 13.6582 21.7644 13.0585 21.4202C13.0949 22.4586 13.0241 23.4564 14.1713 24.0279L13.3802 24.3173C14.0604 24.8334 14.2672 25.1074 15.0865 25.2141C14.7038 25.3993 14.2292 25.3962 13.8229 25.4342C13.9255 25.722 14.0102 26.1109 14.2251 26.3689C12.5485 26.5675 11.878 25.6106 11.3598 25.6502C10.2542 25.7322 10.323 27.8136 13.0441 27.8167L12.7619 28.282C12.7619 28.282 13.2781 28.5832 13.7495 28.6411C13.5689 28.7874 13.394 28.9849 13.2421 29.1357L13.6767 29.5097C12.5665 29.7093 12.2515 28.5278 11.5312 29.0977C10.4328 29.9684 12.8553 31.8066 15.1783 31.5321C14.9829 31.7819 14.438 32.1493 14.2015 32.3406C16.0951 34.1291 15.1609 35.8123 15.9397 37.0457C14.3082 36.9374 13.099 35.7395 12.8163 34.4441ZM14.9444 32.433C15.4697 32.0154 15.9038 31.8071 15.8832 30.8C15.0947 31.2022 12.8569 31.1812 11.9221 29.894C11.6579 29.5287 11.9401 29.3445 12.1961 29.6323C12.8353 30.3577 14.0204 30.0289 14.4529 29.8191C14.3847 29.5708 14.1923 29.2455 14.0307 29.1065C14.1923 28.9464 14.6494 28.7104 14.7443 28.302C14.4986 28.1691 13.5495 28.0742 13.5495 28.0742C13.7023 27.9285 13.8922 27.7228 13.7788 27.1795C12.8091 27.4776 11.6112 27.0733 11.3388 26.7137C11.071 26.3612 11.3449 26.0303 11.5686 26.2627C12.0519 26.7711 14.4339 27.3524 15.3204 26.4695C14.9911 26.3792 14.6284 26.0847 14.5622 25.9031C15.382 25.821 16.0366 25.3367 16.09 24.7334C15.6365 24.7334 14.7797 24.7005 14.4888 24.4809C14.8823 24.3358 15.1296 24.1931 15.2538 23.7535C13.7542 23.6627 13.6356 22.5489 13.6279 22.3642C14.6037 22.9275 16.3229 22.6781 15.8786 21.2904C15.068 21.2473 14.2482 19.9324 16.4825 18.7232C18.5125 17.6253 20.8227 16.4402 20.6196 14.4886C20.4862 13.2414 18.4299 12.3887 18.1693 11.7567C17.3115 12.1651 17.1376 12.6391 17.525 13.4333C17.525 13.4333 15.6144 13.6236 15.4636 12.4472C15.3974 11.9193 15.7499 11.4253 16.128 11.0487C15.914 11.0487 14.4734 10.6634 14.0394 11.8367C13.2309 11.2857 12.5413 11.3057 11.997 11.887C12.8651 12.4031 13.4027 14.1695 14.8377 14.6912C13.8167 15.2453 12.1663 15.0124 11.2028 13.3127C10.2917 14.6861 9.76737 16.0457 11.721 17.497C8.16414 19.1167 8.18979 22.2097 5.0962 23.6842C5.41069 24.5266 6.0725 24.5266 6.9149 24.3953C5.57691 26.1339 6.71687 27.9521 4.6001 28.696C4.79762 29.4045 5.19522 29.9694 5.97708 29.7626C5.75442 30.1094 5.60821 30.1017 5.26242 30.4829C6.41983 31.2119 7.79271 30.6835 8.1036 28.3456C8.15952 27.9285 8.73463 28.1892 8.53506 28.5986C7.21554 31.3274 10.5523 33.3795 9.37182 35.3814C10.4138 35.3378 11.2054 35.2572 11.641 34.9048C11.8529 35.3249 11.9796 35.741 11.9344 36.1509C12.509 36.0345 12.7189 35.6928 12.7584 35.3049C13.1354 36.4023 14.4822 37.5766 16.6384 37.5766C15.4949 35.9488 16.5594 34.2953 14.9444 32.433Z" fill="#D0D5D6"/>
<path d="M9.83043 27.9187C10.2229 28.3287 10.7 28.3707 11.604 28.3133C10.6108 28.1937 10.0536 27.9521 9.70782 27.2928C9.656 26.9532 9.62265 26.5895 9.60778 26.2001C9.57751 25.1555 9.92124 23.9109 10.6436 22.5488C10.6385 23.4035 11.3167 24.7472 12.8276 24.9709C11.468 24.3768 10.6703 23.0388 11.1048 21.7449C11.388 21.2919 11.7076 20.825 12.0642 20.351C12.2437 20.1217 12.4177 19.9011 12.5885 19.6953C12.4053 20.3561 13.2047 21.0385 13.7392 21.1523C13.4489 20.8697 12.8276 19.9508 14.263 18.4153C13.8619 18.6041 13.4191 18.8724 13.0836 19.1356C15.6929 16.316 17.8363 16.2375 18.8219 14.8195C17.3946 15.7947 13.6171 16.3211 11.92 15.8604C12.8568 16.4868 15.1147 16.4294 15.6662 16.3129C13.8249 18.1029 9.80529 19.9508 9.10962 21.5961C10.0895 20.5218 10.7221 20.3248 11.5696 20.0478C10.9022 21.0441 10.3009 21.9209 9.88635 22.9372C8.81719 25.2597 7.38685 25.2889 7.29297 27.2051C7.78086 25.7204 8.77051 25.3443 9.45694 24.3691C9.33536 24.9919 9.27943 25.6814 9.30098 26.4792C9.32509 27.3457 9.4985 28.107 9.774 28.7878C9.70423 29.7354 9.78888 31.3525 10.8745 32.4201C10.1367 31.4859 9.97819 29.9683 10.0439 29.3763C10.8934 31.0164 13.3175 33.281 14.4888 34.8037C13.3175 32.8459 10.4456 30.5583 9.83043 27.9187ZM36.6523 20.0478C37.4968 20.3258 38.133 20.5218 39.1113 21.5961C38.4167 19.9508 34.394 18.1024 32.5527 16.3124C33.1068 16.4288 35.3636 16.4868 36.3004 15.8604C34.6048 16.3211 30.8258 15.7947 29.398 14.8195C30.3846 16.2375 32.527 16.3165 35.1368 19.1356C34.8023 18.8724 34.3586 18.6041 33.9569 18.4153C35.3913 19.9508 34.7716 20.8681 34.4807 21.1523C35.0158 21.0385 35.814 20.3571 35.6319 19.6953C35.8033 19.9011 35.9787 20.1217 36.1562 20.351C36.5154 20.825 36.8324 21.2919 37.1151 21.7449C37.5501 23.0388 36.7498 24.3768 35.3944 24.9709C36.9053 24.7477 37.5835 23.4035 37.5758 22.5488C38.2981 23.9109 38.6444 25.1555 38.6116 26.2001C38.5988 26.5895 38.5634 26.9532 38.5131 27.2928C38.1658 27.9521 37.6086 28.1942 36.619 28.3133C37.5209 28.3707 37.9949 28.3287 38.392 27.9187C37.7749 30.5583 34.9034 32.8449 33.7316 34.8037C34.9034 33.281 37.3244 31.0164 38.1766 29.3763C38.2427 29.9683 38.0837 31.4859 37.348 32.4201C38.4315 31.3525 38.5162 29.7354 38.4469 28.7873C38.7214 28.106 38.8928 27.3457 38.9189 26.4792C38.9446 25.6814 38.8846 24.9919 38.7635 24.3691C39.4499 25.3443 40.4396 25.7204 40.928 27.2051C40.8351 25.2889 39.4048 25.2597 38.3335 22.9372C37.9206 21.9209 37.3208 21.0441 36.6523 20.0478Z" fill="#D0D5D6"/>
<path d="M41.4836 29.0397C41.5246 29.1064 41.6334 29.8764 41.9284 30.2448C40.3893 30.1468 41.104 26.9034 39.5643 27.6853C39.1298 27.9038 39 28.4138 39.2021 28.8309C40.2092 30.9148 37.9144 32.752 38.0432 34.5789C37.4763 34.5748 36.8873 34.5594 36.52 33.7971C36.3302 34.1757 36.029 34.7113 35.8659 35.2274L35.4052 34.444C35.1199 35.7394 33.9112 36.9378 32.2813 37.0456C33.0555 35.8122 32.1259 34.129 34.019 32.3405C33.7819 32.1507 33.2386 31.7819 33.0422 31.532C35.3667 31.8065 37.7893 29.9683 36.6883 29.0977C35.9695 28.5277 35.6525 29.7092 34.5448 29.5096L34.9789 29.1356C34.8275 28.9838 34.65 28.7878 34.471 28.6411C34.944 28.5831 35.4585 28.2819 35.4585 28.2819L35.1764 27.8166C37.8985 27.8135 37.9632 25.7322 36.8622 25.6501C36.3446 25.6106 35.6709 26.5684 33.9959 26.3693C34.2078 26.1108 34.2945 25.7209 34.3986 25.4341C33.9954 25.3961 33.5157 25.3992 33.135 25.214C33.9543 25.1068 34.1601 24.8333 34.8403 24.3172L34.0518 24.0279C35.1969 23.4563 35.1266 22.458 35.161 21.4201C34.5638 21.7654 33.8543 22.301 33.1053 22.0496C32.9267 21.9916 32.8103 21.909 32.8056 21.7208C33.8815 21.2975 34.5669 19.643 31.9956 18.2516C30.3559 17.3666 26.3435 15.4161 29.0626 13.3121C29.434 13.0279 29.8393 12.7719 30.1815 12.4508C30.6078 12.7796 30.025 13.5912 29.8788 13.8888C29.8788 13.8888 30.7828 13.9796 30.9972 13.9796C32.3988 13.9719 33.8671 13.1449 33.1242 11.557C33.6804 11.673 33.746 12.2071 33.9159 12.6657C34.2734 12.4241 34.8932 11.9059 35.3729 11.9798C34.9835 13.2234 33.352 14.3397 32.0828 14.5937C33.3643 15.2919 35.7412 15.8116 36.991 14.3095C37.8688 16.0081 36.6462 16.7166 35.4478 17.6062C40.0122 19.6886 39.3391 22.025 42.3327 23.8637C41.9459 24.0453 40.2103 23.68 40.0558 23.6575C40.7089 24.4999 41.0132 24.8559 41.2025 25.2668C41.3836 25.6516 41.4636 26.0836 41.6426 27.0199C41.7858 27.7592 42.0444 28.4954 42.9416 28.9838C42.5902 29.6225 41.8068 29.1249 41.4836 29.0397ZM41.3056 24.3952C42.1475 24.526 42.8098 24.526 43.1243 23.6831C40.0302 22.2097 40.0558 19.1166 36.4985 17.4969C38.4536 16.0456 37.9267 14.686 37.0192 13.3121C36.0567 15.0123 34.4007 15.2452 33.3849 14.6912C34.8173 14.1694 35.357 12.403 36.224 11.8869C35.6817 11.3057 34.9876 11.2857 34.1821 11.8366C33.744 10.6623 32.3075 11.0486 32.0915 11.0486C32.4676 11.4247 32.8241 11.9192 32.7569 12.4472C32.6081 13.6235 30.6966 13.4337 30.6966 13.4337C31.0813 12.639 30.9105 12.165 30.0527 11.7566C29.7895 12.3892 27.7358 13.2413 27.604 14.488C27.3983 16.4401 29.709 17.6252 31.7391 18.7231C33.9733 19.9323 33.153 21.2472 32.3439 21.2903C31.895 22.6781 33.6157 22.9274 34.5925 22.3641C34.5879 22.5488 34.4648 23.6626 32.9652 23.7534C33.0914 24.1931 33.3382 24.3357 33.7322 24.4819C33.4382 24.7005 32.584 24.7333 32.13 24.7333C32.1849 25.3366 32.839 25.8199 33.6593 25.9015C33.5937 26.0836 33.2299 26.3791 32.9011 26.4694C33.7871 27.3523 36.1676 26.7711 36.6524 26.2626C36.874 26.0302 37.1464 26.3611 36.8827 26.7131C36.6082 27.0732 35.4113 27.4775 34.4417 27.1794C34.3304 27.7227 34.5182 27.9285 34.6695 28.0742C34.6695 28.0742 33.7209 28.1691 33.4757 28.3019C33.5675 28.7103 34.0287 28.9463 34.1893 29.1064C34.0287 29.2454 33.8368 29.5707 33.7681 29.819C34.2026 30.0288 35.3883 30.3572 36.0229 29.6322C36.282 29.3444 36.5631 29.5281 36.3004 29.8939C35.3636 31.1811 33.1273 31.2016 32.3372 30.7999C32.3152 31.807 32.7502 32.0153 33.2761 32.4334C31.6606 34.2952 32.7272 35.9487 31.5836 37.5766C33.7368 37.5766 35.0851 36.4022 35.4632 35.3049C35.5047 35.6927 35.7115 36.0344 36.2861 36.1508C36.2419 35.7409 36.3697 35.3249 36.578 34.9047C37.0151 35.2571 37.8098 35.3377 38.8476 35.3813C37.6692 33.3794 41.0065 31.3273 39.6839 28.5985C39.4874 28.1881 40.062 27.9285 40.1174 28.3456C40.4268 30.6835 41.8012 31.2119 42.9596 30.4829C42.6102 30.1017 42.4671 30.1094 42.245 29.7626C43.0243 29.9693 43.4219 29.4045 43.6224 28.696C41.5046 27.9521 42.6441 26.1334 41.3056 24.3952ZM19.7643 32.909L20.4005 32.4262C20.5134 32.34 20.5857 32.2857 20.716 32.3026L21.6123 32.4201C21.661 32.6355 21.8042 32.8459 21.8042 32.8459L20.8509 32.6448C20.716 32.6289 20.6765 32.6355 20.5493 32.7263L20.0983 33.0675C20.0091 33.1383 20.0065 33.2481 20.0568 33.3574L20.1301 33.5149L19.8141 33.7534L19.694 33.5262C19.5714 33.2835 19.5632 33.0629 19.7643 32.909ZM21.2208 31.2242L21.0546 31.3119C20.9407 31.3781 20.8822 31.4079 20.7832 31.2832L20.7109 31.1929C20.676 31.1503 20.6637 31.0431 20.7376 30.9631L21.4471 30.1345L20.7925 29.5979L21.6261 29.9052L21.9309 29.525C22.0201 29.602 21.9888 29.8216 21.9888 29.8216C22.3264 29.8216 23.3068 30.3084 23.3443 31.5289C23.3443 31.5289 23.5654 31.8568 23.8481 31.8742L25.2923 31.9609C25.5308 31.9609 26.1295 31.5053 26.8991 31.9368C27.0935 31.8188 27.3018 31.7254 27.5158 31.7018C28.193 31.6515 28.6921 32.124 29.0641 32.5991C29.3355 32.9434 29.7074 33.4708 29.7074 33.4708C29.5479 33.6606 29.3894 33.7247 29.2575 33.6765C29.0564 33.5749 28.9923 33.4128 28.9292 33.1896C28.8281 32.8351 28.4377 32.5319 28.4377 32.5319C28.5695 32.7705 28.5977 33.0403 28.6608 33.2876C28.097 32.7299 27.9898 32.0466 27.5958 31.9537C27.4203 31.9101 27.2187 31.984 27.0289 32.2036C27.2285 32.6643 27.2187 33.2004 27.4219 33.5575C27.5768 33.8258 27.6086 33.8494 27.6789 33.9084C27.8456 34.0279 27.7502 34.2419 27.7251 34.3988L27.5111 35.7399H27.1515L27.3885 34.4271C27.4609 34.0279 26.3383 34.0279 25.7637 33.2655C25.2738 33.8371 23.9004 33.6939 23.3068 33.6047C23.0672 33.5698 22.8338 33.5841 22.7015 33.8207C22.625 33.954 22.4947 33.914 22.4162 33.8945L21.3332 33.6606C21.1429 33.6165 21.0608 33.6544 20.9761 33.8289L20.7586 34.2778C20.7109 34.3829 20.7129 34.4589 20.7991 34.543L20.9028 34.6533C20.8412 34.8698 20.6452 35.0329 20.6452 35.0329L20.4082 34.7672C20.2938 34.6328 20.2881 34.4368 20.3795 34.2465L20.7299 33.5159C20.7709 33.4359 20.8448 33.3471 20.9936 33.3471L22.3341 33.3251L21.9232 32.6571C21.6169 32.1548 22.1243 31.2616 22.0489 30.8394C22.0109 31.4058 21.327 31.1467 21.2208 31.2242ZM26.7985 34.3142L26.2203 35.7399H25.8607L26.4384 34.3593C26.4984 34.1818 26.385 34.0977 26.2409 33.9022C26.4548 34.0238 26.6087 34.1018 26.8693 34.2029C26.8457 34.2418 26.8191 34.2649 26.7985 34.3142ZM19.7454 34.1526L20.3959 33.6011L20.2969 33.402C20.2261 33.262 20.264 33.2512 20.34 33.1963L20.6816 32.9403C20.7617 32.8746 20.8448 32.8823 20.9438 32.9059L21.9745 33.1486H20.8869C20.6339 33.165 20.5606 33.262 20.4713 33.4472L20.3959 33.6011L20.1158 34.1757C20.0203 34.3737 19.9716 34.6369 20.2209 34.936L20.419 35.1699L20.0183 35.9826H20.3564L20.6329 35.4177C20.655 35.3977 21.0654 35.0253 21.1511 34.6369C21.0341 34.542 20.9494 34.4743 21.0146 34.3388L21.1408 34.0705C21.1808 33.9807 21.1957 33.9438 21.3152 33.9684L22.3988 34.2029C22.5337 34.2388 22.7317 34.2983 22.8759 34.0813C23.0252 33.854 23.0447 33.8791 23.3884 33.914L23.9409 33.972C24.6961 34.0438 25.4498 33.854 25.7437 33.6216C25.8463 33.8566 26.0505 34.0361 26.1465 34.2183C26.1814 34.2855 26.1234 34.3814 26.0762 34.5004L25.4559 35.9826H26.4122L26.954 34.6282C27.0043 34.5004 27.0766 34.3968 27.1341 34.3465L26.8232 35.9826H27.7502L27.9975 34.3614C28.0514 34.0033 28.0196 33.8858 27.8472 33.7391C27.4593 33.4128 27.4686 32.7264 27.3434 32.3093C27.4096 32.2718 27.485 32.2523 27.5768 32.2631C27.7795 32.2836 27.9308 32.7992 28.1694 33.1306C28.6434 33.7986 29.2944 34.5358 30.0373 33.4974C29.965 33.3794 29.8855 33.2702 29.7967 33.1681L29.5894 32.9259C29.4689 32.791 28.8927 32.1333 28.6542 31.8957C28.1088 31.3483 27.2726 31.4309 26.9396 31.6967C26.1844 31.3022 25.3882 31.7172 25.1999 31.7018L23.8999 31.6233C23.8414 31.6197 23.7506 31.5992 23.688 31.4987L23.9286 31.4191C23.7024 30.4782 23.1339 29.6897 22.1412 29.5553C22.1412 29.5553 22.0832 29.2577 21.9324 29.2003L21.6359 29.5502C21.5523 29.5614 21.4604 29.5866 21.386 29.6194L20.1188 29.1485L21.0705 30.1094C21.0705 30.1094 20.5765 30.8081 20.4364 30.9507C20.3435 31.0811 20.3528 31.1837 20.4564 31.3094L20.6416 31.552C20.7376 31.6762 20.8412 31.6726 20.9936 31.5936L21.2024 31.4858C21.2916 31.4094 21.5984 31.5597 21.7282 31.4402C21.6441 31.7136 21.6041 31.9763 21.5836 32.1861L20.7299 32.083C20.5426 32.0589 20.4585 32.083 20.3435 32.1723L19.6156 32.733C19.3775 32.9162 19.3031 33.2317 19.4514 33.538L19.7454 34.1526ZM22.525 15.708C22.8728 15.9481 23.4874 16.2046 23.4874 16.2046V15.7952L22.134 15.2771C22.134 15.2771 22.134 15.4428 22.525 15.708ZM23.4874 15.2139V14.8087L21.9514 14.2592C21.9514 14.2592 22.134 14.4541 22.525 14.7219C22.8728 14.961 23.4874 15.2139 23.4874 15.2139ZM23.4874 14.2895V13.879L21.8057 13.2603C21.8057 13.2603 22.134 13.5271 22.525 13.7928C22.8728 14.0329 23.4874 14.2895 23.4874 14.2895Z" fill="#D0D5D6"/>
<path d="M28.2115 19.8616H29.9322C29.8599 19.6128 29.5921 19.3609 29.0909 19.3609C28.6153 19.3609 28.3311 19.6348 28.2115 19.8616ZM26.4123 13.2604L24.7337 13.8791V14.2895C24.7337 14.2895 25.3493 14.0335 25.6946 13.7929C26.086 13.5272 26.4123 13.2604 26.4123 13.2604ZM26.086 15.2771L24.7337 15.7953V16.2047C24.7337 16.2047 25.3478 15.9482 25.6951 15.7081C26.086 15.4428 26.086 15.2771 26.086 15.2771ZM26.2682 14.2593L24.7337 14.8087V15.214C24.7337 15.214 25.3493 14.9611 25.6951 14.722C26.086 14.4542 26.2682 14.2593 26.2682 14.2593ZM19.1252 19.3609C18.6245 19.3609 18.3561 19.6128 18.2864 19.8616H20.0066C19.885 19.6348 19.6028 19.3609 19.1252 19.3609Z" fill="#D0D5D6"/>
<path d="M24.1102 13.0577L21.3481 11.9665C21.582 11.4108 22.6655 10.9373 24.1102 10.9373C25.5549 10.9373 26.6369 11.4108 26.8709 11.9665L24.1102 13.0577ZM26.167 16.4678L24.3037 17.4467V13.4912L26.8339 12.6314L26.167 16.4678ZM28.3438 18.1172C27.645 18.2388 27.0463 19.0935 26.5538 19.8615L26.4984 19.9508H25.9741L25.9736 20.0416C25.9177 20.6352 25.3549 21.4422 24.1092 21.4422C23.5341 21.4422 23.1011 21.2662 22.8035 21.0261C22.5445 20.8163 22.3834 20.5567 22.3044 20.3099C22.2746 20.2181 22.2561 20.1293 22.2479 20.0416L22.2438 19.9508H21.7226L21.6661 19.8615C21.1716 19.0935 20.5724 18.2388 19.8772 18.1172L21.777 17.0152L24.1102 18.2834L26.4415 17.0152L28.3438 18.1172ZM30.9059 21.0261C30.7068 21.5458 30.5457 22.1076 30.5457 22.6699V28.7134H29.8429C29.5243 28.4046 29.2544 27.3729 29.2544 27.3729C29.08 27.7458 29.2796 28.4954 29.4673 28.7134H28.5618C28.3381 28.4107 28.1437 27.3369 28.1437 27.3369C27.8733 27.6458 28.0447 28.4815 28.2125 28.7134H27.6117C27.5727 28.2845 27.6953 27.8166 27.6953 27.8166C27.3824 27.7587 27.0468 27.5924 27.0484 27.242C27.2069 27.3918 27.271 27.3898 27.4922 27.3857L27.7482 27.1841C26.8991 27.2107 26.8611 26.2811 27.5317 25.845C26.8611 25.8666 26.3584 25.468 26.6041 24.7533C26.1249 24.506 25.9566 23.6975 26.3101 23.3425C26.0541 23.0644 26.0115 22.5211 26.1752 22.1486C25.8371 22.1486 25.4559 22.0127 25.2435 21.7818C25.2271 21.7895 25.2081 21.7952 25.1902 21.8008C25.6134 21.6279 25.971 21.3601 26.2142 21.0261H30.9059ZM30.5473 33.0311C30.5473 34.2921 29.965 35.2484 28.9969 35.7805L29.3447 35.074H29.0087L28.5634 35.978C28.1027 36.1529 27.5783 36.2483 26.9991 36.2483C25.2312 36.2483 24.7638 36.3207 24.1118 36.9722C23.4551 36.3207 22.9887 36.2483 21.2244 36.2483C20.6483 36.2483 20.127 36.1539 19.6658 35.9826H19.6792L20.124 35.074H19.7879L19.397 35.8682C19.3041 35.8241 19.2144 35.7769 19.1256 35.725L19.4483 35.074H19.1153L18.8758 35.5593C18.1185 35.0012 17.6732 34.1316 17.6732 33.0311V29.0684H30.5473V33.0311ZM21.7836 25.7943L22.3269 25.8609C22.3675 26.159 22.2895 26.6633 22.0956 26.944L21.5702 26.7916C21.7098 26.4576 21.7457 26.1493 21.7836 25.7943ZM21.0028 25.3961C21.0028 25.3961 21.5004 25.372 21.641 25.4254C21.7457 25.4685 21.6749 25.6424 21.5415 25.6239C21.3999 25.6065 21.0028 25.3961 21.0028 25.3961ZM20.9689 23.4179L20.5226 25.0509L20.675 22.4185L21.3686 21.8254L21.721 22.5996L20.8299 25.1555L21.0644 23.4348C21.0874 23.3143 20.9889 23.3014 20.9689 23.4179ZM20.6257 26.1385C20.3907 26.2339 20.1517 26.1057 20.2255 25.9533C20.3338 26.0533 20.6375 26.0046 20.6375 26.0046L20.6257 26.1385ZM20.1855 26.3565C20.2933 26.4617 20.6211 26.4222 20.6211 26.4222L20.6339 26.4869C20.4908 26.6772 20.0942 26.592 20.1855 26.3565ZM19.6715 25.3064C19.5463 25.2227 19.6027 25.0406 19.7418 25.0406C19.8931 25.0442 20.0958 25.2166 20.2969 25.3028C20.2969 25.3028 19.772 25.3725 19.6715 25.3064ZM20.1691 26.7521C20.1691 26.7521 20.3199 26.8167 20.5098 26.8311C20.4877 26.9347 20.4082 27.0363 20.2789 27.0071C20.1722 26.9835 20.124 26.8501 20.1691 26.7521ZM20.5221 25.7666C20.2697 25.8481 20.1583 25.667 20.1707 25.5121C20.6637 25.3305 20.8833 25.4474 21.0284 25.5403C21.1618 25.6239 21.2711 25.8609 21.4507 26.0108C21.4204 26.2124 21.3578 26.5058 21.2855 26.7023C20.7807 26.572 20.7545 26.1277 20.9438 25.8558C20.8371 25.7322 20.7252 25.7009 20.5221 25.7666ZM22.7112 25.9112L23.2519 25.9754C23.3048 26.2739 23.2042 26.9034 23 27.2051L22.449 27.0461C22.6691 26.7567 22.7502 26.2426 22.7112 25.9112ZM23.6408 26.0251L24.0872 26.0816C24.1574 26.4509 24.1118 27.0917 23.8753 27.4575L23.3556 27.3057C23.5839 26.9973 23.6896 26.3612 23.6408 26.0251ZM24.4401 26.1241H24.4499C24.5658 26.1416 24.6879 26.1226 24.7992 26.0759C25.0399 26.4222 25.2281 27.2051 24.9393 27.6956C24.7756 27.6966 24.6146 27.6689 24.4647 27.6268L24.3447 27.5909C24.5889 27.2107 24.552 26.5433 24.4401 26.1241ZM25.1214 25.8609L25.4369 25.5516C25.7607 25.8322 26.1829 26.4617 26.0505 27.0584L25.7058 27.3729C25.636 27.4421 25.5611 27.4939 25.4872 27.5396C25.7012 27.0055 25.4272 26.1867 25.1214 25.8609ZM26.9776 26.0385C26.9083 26.1303 26.8514 26.2391 26.8155 26.3555L26.4312 26.7095C26.5082 26.1467 26.1311 25.4818 25.7858 25.2109L26.1957 24.8103L26.2758 24.8918C26.1393 25.251 26.4061 25.9533 26.9776 26.0385ZM25.9566 23.3189C25.7545 23.7047 25.775 24.1495 26.0121 24.5527L25.8546 24.7077C25.1656 24.623 24.8936 23.5949 24.8936 23.5949C24.8808 23.6847 24.8716 23.7785 24.8731 23.8683C24.4714 23.7195 24.2159 23.363 24.237 22.873C24.3893 22.9587 24.5607 23.0182 24.7428 23.0506L24.789 22.7489C24.3078 22.6653 24.0266 22.3641 23.9184 22.0091C23.8968 22.006 23.8753 22.0024 23.8542 21.9983C23.9389 22.006 24.0241 22.0127 24.1118 22.0127C24.3965 22.0127 24.6679 21.9686 24.9224 21.8942C25.1219 22.1789 25.4775 22.3826 25.834 22.4226C25.7776 22.6571 25.8048 22.9531 25.9566 23.3189ZM22.0053 21.0261C22.3377 21.4812 22.8774 21.8177 23.5156 21.9506C23.5705 22.1907 23.6993 22.4524 23.9538 22.6653C23.8486 23.3717 24.1523 24.0315 24.9126 24.2074C24.9916 24.5666 25.2158 24.839 25.5898 24.9688L25.0614 25.5793C24.8603 25.8137 24.5966 25.8892 24.3775 25.8609L22.016 25.5926C22.1176 25.33 21.8462 25.0257 21.0992 25.156L22.0273 22.5621L21.4604 21.357L20.3877 22.2728L20.3087 24.9955L19.8536 24.7708C19.2523 24.5132 19.0779 25.5957 19.6479 25.6003L19.8736 25.6029C19.8598 25.7158 19.8931 25.8368 19.9808 25.8748C19.8736 25.9205 19.8423 26.1226 19.9767 26.1934C19.8392 26.258 19.8228 26.4633 19.9321 26.553C19.8126 26.7521 19.7946 27.1871 20.2086 27.2959C20.5457 27.3857 20.7586 27.0199 20.8299 26.8085L24.5027 27.9459C25.024 28.0952 25.3933 28.0126 25.8253 27.633L26.7842 26.7947C26.6646 27.3426 26.8611 27.8372 27.2782 28.0003C27.2782 28.0003 27.2177 28.4908 27.2377 28.7134H17.6732V22.6699C17.6732 22.1076 17.5111 21.5458 17.3166 21.0261H22.0053ZM21.385 12.6314L23.9127 13.4912V17.4467L22.0514 16.4678L21.385 12.6314ZM27.5265 12.1609C27.5265 11.1928 25.9012 10.3263 24.1092 10.3263C22.3156 10.3263 20.6904 11.1928 20.6904 12.1609L20.7283 12.3959L21.4414 16.5048L18.0534 18.4799C17.6922 18.6918 17.2407 19.2757 17.1833 19.8615H17.8015C17.9036 19.2762 18.3673 18.6256 19.2333 18.6646C20.0157 18.7072 20.4774 19.1833 20.9382 19.8615L21.0567 20.0416L21.2275 20.3099H16.2439C16.6087 21.0441 16.9586 21.8239 16.9586 22.6699V33.0311C16.9586 35.6968 19.0071 36.9656 21.2244 36.9656C22.9359 36.9656 23.1668 36.8886 24.1118 37.8326C25.0537 36.8886 25.283 36.9656 26.9991 36.9656C29.2159 36.9656 31.264 35.6968 31.264 33.0311V22.6699C31.264 21.8239 31.6103 21.0441 31.9761 20.3099H26.9899L27.1628 20.0416L27.2818 19.8615C27.7389 19.1833 28.2032 18.7072 28.9856 18.6646C29.8475 18.6256 30.3138 19.2762 30.4154 19.8615H31.0331C30.9777 19.2757 30.5237 18.6918 30.1645 18.4799L26.7765 16.5048L27.4911 12.3959L27.5265 12.1609Z" fill="#D0D5D6"/>
<path d="M30.2545 24.9324L30.2586 24.6292C29.33 24.6077 29.1155 23.5098 29.1155 23.5098C28.8447 24.3173 29.5542 24.9186 30.2545 24.9324ZM29.0801 26.7886L28.9857 26.5013C28.1941 26.7039 27.7858 25.448 27.7858 25.448C27.5303 26.3612 28.4158 27.0071 29.0801 26.7886ZM29.6306 25.624C28.6841 25.7743 28.2947 24.6723 28.2947 24.6723C28.19 25.272 28.5789 25.88 29.2043 25.9451C29.0637 26.7275 29.7912 27.1292 30.4207 26.8501L30.3299 26.5782C29.783 26.7593 29.27 26.2191 29.6306 25.624ZM29.0637 22.4791L29.0714 22.1769C27.8217 21.9178 27.9274 21.058 27.9274 21.058C27.657 21.8681 28.3655 22.4663 29.0637 22.4791Z" fill="#D0D5D6"/>
<path fill-rule="evenodd" clip-rule="evenodd" d="M21.1428 35.074L20.6938 35.983H21.0308L21.4788 35.074H21.1428Z" fill="#D0D5D6"/>
<path fill-rule="evenodd" clip-rule="evenodd" d="M21.8168 35.074L21.3708 35.983H21.7098L22.1528 35.074H21.8168Z" fill="#D0D5D6"/>
<path fill-rule="evenodd" clip-rule="evenodd" d="M24.5239 35.074L24.0789 35.983H24.4129L24.8609 35.074H24.5239Z" fill="#D0D5D6"/>
<path fill-rule="evenodd" clip-rule="evenodd" d="M25.2039 35.074L24.7539 35.983H25.0919L25.5369 35.074H25.2039Z" fill="#D0D5D6"/>
<path fill-rule="evenodd" clip-rule="evenodd" d="M23.8479 35.074L23.4009 35.983H23.7379L24.1839 35.074H23.8479Z" fill="#D0D5D6"/>
<path fill-rule="evenodd" clip-rule="evenodd" d="M27.802 35.983H28.137L28.585 35.074H28.248L27.802 35.983Z" fill="#D0D5D6"/>
<path fill-rule="evenodd" clip-rule="evenodd" d="M22.4948 35.074L22.0488 35.983H22.3858L22.8318 35.074H22.4948Z" fill="#D0D5D6"/>
<path fill-rule="evenodd" clip-rule="evenodd" d="M23.1709 35.074L22.7239 35.983H23.0619L23.5089 35.074H23.1709Z" fill="#D0D5D6"/>
<path d="M21.6391 30.1946C21.5775 30.1946 21.5242 30.2556 21.5242 30.3336C21.5242 30.408 21.5775 30.469 21.6391 30.469C21.7037 30.469 21.7571 30.408 21.7571 30.3336C21.7571 30.2556 21.7037 30.1946 21.6391 30.1946ZM21.5026 9.2192L22.0336 8.09001L23.0222 8.61433L24.1109 7.53901L25.2016 8.61433L26.1876 8.09001L26.7156 9.2192L27.3702 9.11762C27.2034 9.43313 27.0762 9.70863 26.9587 10.0949C26.2425 9.67631 25.177 9.35413 24.1109 9.35413C23.0427 9.35413 21.9803 9.67631 21.2625 10.0949C21.143 9.70863 21.0188 9.43313 20.849 9.11762L21.5026 9.2192ZM24.1119 9.71376C25.4986 9.71376 26.6099 10.1734 27.2235 10.668C27.2235 10.668 27.4071 9.56601 28.0279 8.59894L26.911 8.72463L26.3262 7.48104L25.2016 8.06539L24.1119 6.9834L23.0222 8.06539L21.8951 7.48104L21.3097 8.72463L20.1934 8.59894C20.8162 9.56601 20.9973 10.668 20.9973 10.668C21.6104 10.1734 22.7226 9.71376 24.1119 9.71376Z" fill="#D0D5D6"/>
<path d="M25.2519 7.48766C25.415 7.50151 25.5581 7.37941 25.572 7.21729C25.5879 7.05671 25.3509 6.62268 25.3509 6.62268C25.3509 6.62268 24.9959 7.00489 24.9846 7.16855C24.9697 7.32913 25.0913 7.47175 25.2519 7.48766ZM27.0829 8.15255C27.2286 8.23001 27.4045 8.17153 27.4825 8.02737C27.56 7.88628 27.5097 7.39582 27.5097 7.39582C27.5097 7.39582 27.0367 7.6077 26.9597 7.75238C26.8859 7.89552 26.9397 8.07405 27.0829 8.15255ZM22.9673 7.48766C23.132 7.47175 23.2521 7.32913 23.2372 7.16855C23.2228 7.00489 22.8714 6.62268 22.8714 6.62268C22.8714 6.62268 22.6349 7.05671 22.6503 7.21729C22.6626 7.37941 22.8078 7.50151 22.9673 7.48766ZM21.1378 8.15255C21.2825 8.07405 21.3374 7.89552 21.2594 7.75238C21.1835 7.6077 20.711 7.39582 20.711 7.39582C20.711 7.39582 20.6623 7.88628 20.7408 8.02737C20.8162 8.17153 20.9937 8.23001 21.1378 8.15255ZM41.3991 18.4389C41.5196 18.7072 41.7587 19.6399 41.1862 20.3509C40.5356 19.0484 39.6389 17.9335 38.915 17.4523C38.7559 17.3502 39.0017 17.1671 39.4475 17.1086C40.7993 16.8531 42.382 17.4256 43.1347 17.6252C42.7843 17.8889 42.498 18.0054 42.1414 18.0505C42.6888 18.5092 43.0864 18.8975 43.3702 19.33C42.8381 19.4624 42.5411 19.1263 41.3991 18.4389ZM43.1018 18.2178C43.4923 18.0792 43.7939 17.7057 43.9437 17.363C42.9515 17.2189 40.314 16.1123 38.147 17.0142C38.9586 16.2426 39.6871 16.1436 39.7553 15.0349C40.0934 15.277 40.6624 15.4135 40.982 14.8358C40.7593 14.1745 40.1934 14.7101 40.1155 14.528C40.0041 14.2766 40.8276 14.6075 41.004 13.7492C40.3638 13.5291 40.1724 14.0519 40.0585 13.9308C39.9528 13.8149 40.4654 13.5953 40.0878 12.9038C39.4208 13.2931 39.7687 13.7328 39.6281 13.7805C39.4567 13.8493 39.5911 13.3121 38.8555 13.3373C38.7831 14.1273 39.5481 14.1535 39.4208 14.2792C39.271 14.4331 39.0714 13.8241 38.5148 14.1325C38.5251 14.7712 39.0407 15.1211 39.5758 14.9708C39.4896 16.1846 38.3768 15.9584 37.5472 17.3251C39.3023 18.2249 40.096 19.7953 41.1764 20.8789C41.5335 20.6275 42.144 19.5003 42.144 19.5003C43.3127 20.4064 44.1356 19.5044 44.1356 19.5044C43.7329 19.0925 43.718 18.7795 43.1018 18.2178ZM23.7851 39.7467L23.0253 39.718L22.9376 40.0232L23.033 40.0273C23.0643 40.0273 23.0643 39.9683 23.0915 39.936C23.1074 39.9242 23.2449 39.9016 23.3541 39.9129L23.6727 39.937C23.4845 40.3274 22.994 40.6953 23.0002 40.9539C23.0079 41.0919 23.1474 41.1206 23.23 41.1155C23.3834 41.1108 23.4326 41.0021 23.4727 40.8364C23.5645 40.4516 23.7512 40.1576 23.8857 39.718L23.7913 39.7215L23.7851 39.7467ZM24.3038 40.2002L24.3166 39.9663H24.9774L24.943 39.7046C24.7619 39.7103 24.4967 39.7698 24.252 39.7713L24.2073 40.2823C24.5136 40.269 24.7132 40.4023 24.7132 40.7235C24.7132 40.8425 24.6347 41.0667 24.4967 41.0831C24.4649 41.0878 24.4228 41.0765 24.4028 41.0606C24.3361 41.0108 24.4233 40.9569 24.4233 40.8738C24.4233 40.7687 24.3145 40.7307 24.2427 40.7435C24.1288 40.7502 24.0873 40.8235 24.0873 40.9144C24.0873 41.1031 24.3664 41.155 24.4874 41.155C24.7578 41.155 25.0718 41.0041 25.0718 40.6968C25.0718 40.2931 24.6203 40.2084 24.3038 40.2002ZM25.928 40.409C25.6774 40.409 25.6412 40.0422 25.6412 39.8647C25.6412 39.8139 25.6911 39.7436 25.7459 39.7436C25.9752 39.7436 26.0388 40.2423 26.0569 40.3829C26.0196 40.3962 25.9752 40.409 25.928 40.409ZM25.7684 39.6738C25.5167 39.6738 25.3083 39.8503 25.3083 40.0914C25.3083 40.4721 25.7448 40.5973 26.069 40.4526C26.109 40.7481 26.0448 40.9605 25.9247 40.9677C25.8222 40.9677 25.837 40.8959 25.8222 40.8359C25.7953 40.7199 25.6993 40.6891 25.5984 40.7199C25.4931 40.7481 25.4767 40.8364 25.4948 40.901C25.5419 41.0513 25.7399 41.0549 25.8342 41.0436C26.2516 40.999 26.4249 40.7107 26.4249 40.39C26.4249 40.0181 26.1978 39.6738 25.7684 39.6738ZM22.4902 39.5959C22.4553 39.6384 22.2927 39.8426 21.9418 40.1032L21.9705 40.1561C22.0095 40.1345 22.0711 40.1058 22.1772 40.0422L21.9705 40.7635C21.9597 40.803 21.912 40.8076 21.8884 40.803L21.7648 40.7846L21.7422 40.8702L22.4132 40.9903L22.4333 40.9067L22.3178 40.88C22.284 40.8702 22.2619 40.8466 22.2686 40.8076L22.5738 39.6087L22.4902 39.5959Z" fill="#D0D5D6"/>
<path d="M27.5726 40.4486L26.9775 38.5114C28.2447 38.2502 29.1282 37.9804 29.8018 37.7198V38.9285L30.8473 39.3497C29.9639 39.7524 28.868 40.152 27.5726 40.4486ZM24.1117 41.5803C22.9276 41.5803 21.7743 41.4033 20.7862 41.1612L21.4147 39.1321C21.8318 39.2281 22.8727 39.3558 24.1117 39.3558C25.3507 39.3558 26.388 39.2281 26.8077 39.1321L27.4372 41.1612C26.446 41.4033 25.2907 41.5803 24.1117 41.5803ZM17.371 39.3497L18.4191 38.9285V37.7198C19.0922 37.9804 19.9761 38.2502 21.2433 38.5114L20.6498 40.4486C19.3564 40.152 18.2585 39.7524 17.371 39.3497ZM30.1255 38.676V37.1954C28.9804 37.7198 27.5239 38.1456 25.6503 38.3149L25.5646 38.8438C25.7247 38.8659 25.9253 38.8859 26.1957 38.9023C25.4995 38.9987 24.6037 39.0449 24.1117 39.0449C23.6187 39.0449 22.7234 38.9987 22.0273 38.9023C22.2956 38.8859 22.4962 38.8659 22.6562 38.8438L22.5716 38.3149C20.697 38.1456 19.2379 37.7198 18.0954 37.1954V38.676L16.5424 39.3143C17.6921 39.913 19.0168 40.4009 20.5456 40.7954L20.3655 41.4156C21.2428 41.6717 22.6424 41.9333 24.1117 41.9333C25.5795 41.9333 26.9801 41.6717 27.8553 41.4156L27.6742 40.7954C29.2036 40.4009 30.5292 39.913 31.6795 39.3143L30.1255 38.676ZM4.84987 19.3301C5.13358 18.8976 5.52861 18.5092 6.08064 18.0521C5.71997 18.0054 5.43729 17.889 5.08484 17.6253C5.83848 17.4257 7.42478 16.8531 8.77458 17.1086C9.21784 17.1671 9.46871 17.3503 9.30608 17.4524C8.58014 17.9336 7.68387 19.0484 7.0318 20.35C6.46233 19.6399 6.70141 18.7072 6.82197 18.4389C5.6815 19.1264 5.38342 19.4624 4.84987 19.3301ZM6.07653 19.5004C6.07653 19.5004 6.68704 20.6275 7.04309 20.8789C8.12456 19.7954 8.91925 18.225 10.6733 17.3251C9.84323 15.9584 8.7284 16.1872 8.64786 14.9718C9.17885 15.1211 9.6965 14.7697 9.70727 14.1325C9.14858 13.8273 8.95055 14.4347 8.79971 14.2793C8.67453 14.151 9.43895 14.1274 9.36559 13.3378C8.62887 13.3153 8.76534 13.8493 8.59142 13.7806C8.45342 13.7313 8.79971 13.2922 8.13123 12.9038C7.75569 13.5985 8.26924 13.8144 8.16253 13.9309C8.04966 14.052 7.85625 13.5292 7.21803 13.7493C7.39041 14.6076 8.2164 14.2767 8.10455 14.5281C8.02657 14.7102 7.46224 14.1756 7.24061 14.8369C7.55715 15.4136 8.12815 15.2771 8.46316 15.036C8.53345 16.1482 9.26145 16.2401 10.0751 17.0142C7.90806 16.1123 5.26953 17.2184 4.27476 17.3636C4.4261 17.7058 4.72777 18.0793 5.11716 18.2147C4.50408 18.7821 4.48921 19.0936 4.08545 19.5035C4.08545 19.5035 4.90682 20.4064 6.07653 19.5004ZM23.16 18.6754V19.3275C23.3863 19.0571 23.8198 19.1095 23.8198 19.1095V20.0483C23.8198 20.0483 23.8054 20.5116 23.6413 20.7122H24.5817C24.418 20.5116 24.4026 20.0483 24.4026 20.0483V19.1095C24.4026 19.1095 24.8361 19.0571 25.0613 19.3275V18.6754H23.16Z" fill="#D0D5D6"/>
<path fill-rule="evenodd" clip-rule="evenodd" d="M44.6978 18.9556C44.5839 18.8381 44.5152 18.7319 44.4208 18.5836C44.372 18.5077 44.3187 18.4276 44.2581 18.3399C44.4218 18.1496 44.5618 17.93 44.6665 17.6894L45.0867 16.7321L44.0529 16.5833C43.878 16.5576 43.5968 16.4838 43.269 16.3976C42.6344 16.2313 41.8217 16.0179 40.9332 15.9251C41.2369 15.7917 41.4934 15.5526 41.6735 15.2284L41.8433 14.9221C41.8433 14.9221 41.7981 14.4927 41.6309 14.3577C41.6955 14.2249 41.7432 14.0781 41.7771 13.9181L41.9172 13.2327L41.2564 13.0064C41.1543 12.9705 41.0506 12.9454 40.9496 12.9289C40.9121 12.8033 40.8567 12.6704 40.7813 12.5308L40.3888 11.8116L39.6808 12.2261C39.5049 12.3297 39.3561 12.4472 39.2355 12.5796C39.1298 12.5601 39.017 12.5503 38.898 12.5503C38.898 12.5503 38.4952 12.5052 38.0479 12.6668L37.4769 12.0753L36.8017 11.3539C36.1707 10.6778 35.3149 10.4782 34.4417 10.8101C34.1088 10.4782 33.5891 10.2022 32.7831 10.2022C32.5102 10.2022 32.2706 10.235 32.1285 10.254C32.1285 10.254 31.0183 10.4561 30.3949 11.0487L29.6372 10.6885C29.1298 11.4868 28.2617 11.7408 28.2617 11.7408C28.2033 11.5073 28.1012 11.2888 27.957 11.0902L28.0068 10.8081C28.0068 10.7999 28.1766 9.84613 28.6963 9.03861L29.5992 7.6329L28.3197 7.77655C28.3228 7.64932 28.3172 7.50002 28.2992 7.322L28.1848 6.2277L27.1818 6.6802C27.0705 6.73047 26.9776 6.77921 26.8914 6.8259L26.6934 6.40367L26.2342 6.64223C26.1881 6.52834 26.1291 6.40059 26.048 6.25284L25.5186 5.28269L24.767 6.09277C24.69 6.1764 24.6254 6.25284 24.5684 6.32672L24.1123 5.8732L23.6537 6.32877C23.5967 6.25489 23.5336 6.17845 23.4567 6.09585L22.7035 5.27808L22.1726 6.25335C22.0915 6.40213 22.0335 6.52834 21.9873 6.64223L21.5292 6.40418L21.3302 6.8259C21.2434 6.77921 21.1496 6.73047 21.0393 6.67917L20.0327 6.22668L19.9214 7.32457C19.9029 7.50156 19.8983 7.65034 19.9014 7.77655L18.6198 7.6329L19.5258 9.03964C20.0471 9.84613 20.2133 10.7983 20.2138 10.8055L20.2615 11.0877C20.1158 11.2888 20.0142 11.5073 19.9557 11.7408C19.9557 11.7408 19.1364 11.3904 18.588 10.6875L17.8154 11.0559C16.9335 10.4607 16.3871 10.2288 15.4369 10.2022C14.6304 10.1801 14.1107 10.4782 13.7788 10.8096C12.9046 10.4787 12.0509 10.6793 11.4219 11.3539C11.4219 11.3539 11.0079 11.8033 10.7458 12.0753C10.4836 12.3482 10.0983 12.5734 10.0983 12.5734C10.0983 12.5734 9.54936 12.4503 8.98554 12.5806C8.86497 12.4477 8.71517 12.3297 8.53612 12.2246L7.82659 11.8116L7.43618 12.5349C7.36179 12.6729 7.3074 12.8038 7.27098 12.9289C7.1694 12.9454 7.06679 12.9705 6.96367 13.0064L6.3075 13.2327L6.445 13.914C6.47783 14.0781 6.52554 14.2249 6.59121 14.3583C6.55325 14.4306 6.51939 14.5086 6.49117 14.5907L6.38035 14.9216L6.54914 15.2278C6.72768 15.5516 6.98368 15.7917 7.28791 15.9251C6.39934 16.0179 5.58618 16.2313 4.95002 16.3981C4.62373 16.4843 4.34105 16.5581 4.16661 16.5843L3.12772 16.7341L3.36423 17.2687L3.55303 17.694C3.66025 17.932 3.79979 18.1516 3.96397 18.3404C3.90291 18.4276 3.63973 18.8376 3.52481 18.955L3.00049 19.4896L3.50429 20.0452C3.56688 20.1135 4.13121 20.705 5.04493 20.706C5.29426 20.706 5.54257 20.6624 5.78831 20.5757C6.032 20.9569 6.31982 21.3422 6.58505 21.532C6.09972 22.103 5.54667 22.5976 4.76019 22.9721L4.10248 23.2856L4.38414 24.0366C4.56883 24.4896 4.92642 24.9878 5.61952 25.1781C5.47126 25.6209 5.39943 26.0426 5.33684 26.4161C5.18858 27.3057 5.12599 27.674 4.34258 27.949L3.63922 28.1953L3.84032 28.9125C4.00347 29.4969 4.24562 29.8837 4.51035 30.1376L4.04297 30.6522C4.04297 30.6522 5.15266 31.4833 6.23978 31.5849C6.25517 31.5869 7.18325 31.6459 7.59932 31.1155C7.76606 31.7167 8.02976 32.2713 8.26832 32.7751C8.7598 33.8084 9.02145 34.4209 8.69208 34.9786L7.94972 36.2386L9.41084 36.1776C10.0485 36.1509 10.6416 36.1129 11.1536 35.9857C11.1536 36.0139 11.1521 36.0396 11.149 36.0657L11.0295 37.1477L12.3095 36.8779C12.4449 36.8373 12.5701 36.785 12.686 36.7224C13.4792 37.649 14.8249 38.3728 16.64 38.3728H16.7462L14.6597 39.2296L16.1783 40.0202C17.1787 40.5409 18.2904 40.9775 19.5581 41.3469L19.3811 41.9543L20.144 42.1775C20.5842 42.3073 22.1746 42.7285 24.1118 42.7285C26.049 42.7285 27.6379 42.3063 28.0791 42.1775L28.8399 41.9543L28.6635 41.3479C29.9327 40.9775 31.045 40.5409 32.0454 40.0202L33.565 39.2296L31.4769 38.3728H31.5821C33.3957 38.3728 34.7419 37.649 35.5345 36.7224C35.6494 36.7835 35.7761 36.8373 35.9101 36.8779L37.1896 37.1477L37.0726 36.0668C37.07 36.0411 37.0685 36.0144 37.0685 35.9862C37.58 36.1129 38.1736 36.1509 38.8107 36.1776L40.2698 36.2386L39.53 34.9796C39.2001 34.4209 39.4623 33.8089 39.9528 32.7756C40.1918 32.2729 40.455 31.7173 40.6223 31.1155C40.9039 31.3304 41.2056 31.4582 41.5078 31.5254C41.5078 31.5254 41.7417 31.5957 41.9659 31.6013C42.6123 31.6208 42.9335 31.4377 43.3778 31.1581L44.1832 30.6512L43.7118 30.1361C43.976 29.8821 44.2181 29.4958 44.3818 28.9146L44.5849 28.1953L43.8795 27.949C43.0956 27.674 43.034 27.3057 42.8847 26.4166C42.8211 26.0426 42.7519 25.6209 42.6021 25.1781C43.2947 24.9873 43.6517 24.4886 43.8364 24.0366L44.1176 23.2845L43.4604 22.9721C42.6734 22.5976 42.1208 22.103 41.635 21.532C41.9013 21.3417 42.1891 20.9559 42.4343 20.5757C42.6785 20.6624 42.9258 20.705 43.1761 20.706C44.0899 20.706 44.6557 20.114 44.7173 20.0463L45.2211 19.4912L44.6978 18.9556Z" fill="#FFFFFE"/>
<path d="M24.1117 36.9738C23.4555 36.3218 22.9887 36.25 21.2213 36.25C19.1107 36.25 17.6757 35.0125 17.6757 33.0332V29.0726H30.5462V33.0332C30.5462 35.0125 29.1143 36.25 26.9991 36.25C25.2311 36.25 24.7638 36.3218 24.1117 36.9738ZM17.6757 28.7171V22.6751C17.6757 22.1123 17.5131 21.5505 17.3181 21.0323H22.0062C22.4367 21.6229 23.217 22.0189 24.1117 22.0189C25.0034 22.0189 25.7837 21.6229 26.2146 21.0323H30.9038C30.7047 21.5505 30.5446 22.1123 30.5446 22.6751V28.7171H17.6757Z" fill="#FFE52B"/>
<path d="M18.4206 37.7213V38.9285L17.3741 39.3497C18.2601 39.7524 19.358 40.1521 20.6503 40.4481L21.2449 38.5129C19.9767 38.2508 19.0937 37.9804 18.4206 37.7213ZM24.1117 39.3558C22.8733 39.3558 21.8318 39.2281 21.4157 39.1311L20.7878 41.1612C21.7743 41.4034 22.9292 41.5804 24.1117 41.5804C25.2907 41.5804 26.445 41.4034 27.4362 41.1612L26.8062 39.1311C26.3881 39.2281 25.3507 39.3558 24.1117 39.3558ZM29.8002 37.7213C29.1271 37.9804 28.2447 38.2508 26.977 38.5129L27.5727 40.4481C28.8665 40.1521 29.9624 39.7524 30.8463 39.3497L29.8002 38.9285V37.7213ZM14.2671 18.4215C12.8306 19.957 13.4524 20.8754 13.7428 21.1585C13.2077 21.0436 12.4099 20.3623 12.5916 19.7026C12.4212 19.9067 12.2478 20.1279 12.0678 20.3562C11.7112 20.8312 11.3921 21.2976 11.1094 21.749C10.6738 23.0439 11.4726 24.3814 12.8306 24.974C11.3203 24.7523 10.6431 23.4087 10.6477 22.554C9.92584 23.9166 9.58211 25.1602 9.6134 26.2047C9.62725 26.5926 9.6606 26.9563 9.71139 27.2975C10.0582 27.9557 10.6154 28.1974 11.607 28.3174C10.7046 28.3744 10.2285 28.3323 9.83503 27.9219C10.4502 30.5614 13.3206 32.8475 14.4903 34.8052C13.3206 33.2836 10.8975 31.0185 10.0485 29.3794C9.98279 29.9714 10.1408 31.489 10.8785 32.4222C9.79296 31.3556 9.70883 29.7375 9.7786 28.7915C9.50361 28.1101 9.32969 27.3488 9.30609 26.4828C9.28403 25.6861 9.34047 24.996 9.46154 24.3742C8.77613 25.349 7.78598 25.7251 7.29808 27.2082C7.39299 25.2941 8.8223 25.2644 9.89095 22.9424C10.3055 21.926 10.9062 21.0498 11.5732 20.054C10.7267 20.331 10.0936 20.5285 9.11473 21.6013C9.80989 19.957 13.828 18.1091 15.6682 16.3196C15.1167 16.4366 12.8594 16.4935 11.9231 15.8681C13.6207 16.3283 17.3977 15.8025 18.8239 14.8272C17.8389 16.2437 15.6959 16.3237 13.0866 19.1408C13.4227 18.8797 13.8654 18.6113 14.2671 18.4215ZM16.2279 18.2584C17.8686 17.3729 21.8775 15.4239 19.1599 13.3214C18.789 13.0362 18.3822 12.7797 18.039 12.4595C17.6147 12.7869 18.1985 13.5985 18.3437 13.896C18.3437 13.896 17.4392 13.9874 17.2222 13.9874C15.8247 13.9812 14.3584 13.1537 15.1008 11.5664C14.5447 11.6813 14.4759 12.2153 14.3061 12.6745C13.949 12.4329 13.3298 11.9147 12.8522 11.9876C13.2405 13.2296 14.8746 14.3485 16.1418 14.6025C14.8592 15.3002 12.4838 15.8194 11.2336 14.3172C10.3558 16.0144 11.5788 16.7244 12.7757 17.6135C8.21436 19.6949 8.88695 22.0302 5.89442 23.8684C6.2833 24.0505 8.01376 23.6847 8.16767 23.6627C7.51766 24.5056 7.21446 24.8616 7.02463 25.2705C6.84353 25.6553 6.76093 26.0888 6.58137 27.0241C6.44029 27.7633 6.18275 28.4995 5.28442 28.9885C5.63636 29.6257 6.41874 29.128 6.74606 29.0428C6.70142 29.1095 6.59163 29.8786 6.29767 30.248C7.83471 30.1489 7.12314 26.9081 8.66172 27.6884C9.09524 27.907 9.22555 28.4169 9.02495 28.8346C8.0153 30.918 10.3106 32.7546 10.1854 34.5805C10.7498 34.5759 11.3341 34.561 11.7035 33.7987C11.8949 34.1788 12.1934 34.7129 12.3592 35.229L12.8193 34.4461C13.102 35.741 14.3102 36.9389 15.9427 37.0457C15.1639 35.8139 16.0966 34.1306 14.2056 32.3422C14.4405 32.1523 14.9859 31.785 15.1808 31.5352C12.8589 31.8081 10.4363 29.9714 11.5357 29.0998C12.2555 28.5303 12.5695 29.7124 13.6797 29.5138L13.2457 29.1388C13.3986 28.9885 13.572 28.7915 13.7526 28.6442C13.2816 28.5868 12.766 28.2851 12.766 28.2851L13.0471 27.8203C10.3275 27.8172 10.2578 25.7369 11.3628 25.6537C11.8825 25.6158 12.5531 26.5721 14.2276 26.3735C14.0132 26.115 13.928 25.7261 13.8264 25.4372C14.2312 25.4003 14.7068 25.4039 15.0885 25.2182C14.2707 25.112 14.0635 24.8385 13.3837 24.3224L14.1748 24.0331C13.0282 23.4616 13.0979 22.4642 13.0625 21.4253C13.6617 21.7706 14.3677 22.3057 15.1198 22.0564C15.2988 21.9963 15.4138 21.9137 15.4179 21.727C14.3425 21.3042 13.6546 19.6492 16.2279 18.2584ZM38.7593 24.3742C38.8799 24.996 38.941 25.6866 38.9148 26.4828C38.8891 27.3488 38.7168 28.1101 38.4423 28.7915C38.5126 29.7375 38.4279 31.3556 37.3434 32.4222C38.0791 31.488 38.2381 29.9714 38.1735 29.3794C37.3208 31.0185 34.9003 33.2836 33.7291 34.8052C34.9003 32.8475 37.7718 30.5604 38.3874 27.9219C37.9913 28.3323 37.5178 28.3744 36.6149 28.3179C37.6055 28.1974 38.1612 27.9557 38.5085 27.2975C38.5603 26.9563 38.5942 26.5926 38.6075 26.2042C38.6403 25.1602 38.2945 23.9166 37.5727 22.554C37.5799 23.4087 36.9022 24.7523 35.3903 24.975C36.7462 24.3814 37.546 23.0439 37.111 21.749C36.8293 21.2976 36.5123 20.8312 36.1531 20.3562C35.9751 20.1279 35.8002 19.9073 35.6288 19.7026C35.8104 20.3623 35.0127 21.0436 34.4776 21.1585C34.7685 20.8754 35.3882 19.957 33.9543 18.4215C34.3565 18.6113 34.7998 18.8797 35.1343 19.1408C32.5255 16.3237 30.3846 16.2442 29.3955 14.8272C30.8243 15.8025 34.6017 16.3288 36.2973 15.8681C35.3615 16.4935 33.1037 16.4366 32.5511 16.3196C34.3909 18.1091 38.4125 19.957 39.1062 21.6008C38.1283 20.5285 37.4922 20.331 36.6492 20.0545C37.3162 21.0503 37.9159 21.926 38.3289 22.9419C39.4001 25.2644 40.83 25.2936 40.9238 27.2093C40.4354 25.724 39.4458 25.349 38.7593 24.3742ZM41.6385 27.0241C41.4589 26.0883 41.3784 25.6553 41.1968 25.2715C41.009 24.8616 40.7048 24.5056 40.0512 23.6627C40.2061 23.6847 41.9402 24.0505 42.3275 23.8684C39.3345 22.0302 40.0076 19.6949 35.4446 17.6135C36.6431 16.7244 37.8646 16.0149 36.9884 14.3162C35.7381 15.8194 33.3612 15.3002 32.0802 14.6025C33.3499 14.3485 34.9814 13.2306 35.3697 11.9876C34.89 11.9147 34.2708 12.4329 33.9143 12.6735C33.7444 12.2153 33.6783 11.6808 33.1221 11.5648C33.865 13.1537 32.3972 13.9812 30.9956 13.9874C30.7817 13.9874 29.8777 13.896 29.8777 13.896C30.0229 13.5985 30.6057 12.7869 30.1799 12.4595C29.8377 12.7797 29.4329 13.0362 29.061 13.3214C26.3419 15.4239 30.3548 17.3739 31.994 18.2584C34.5638 19.6492 33.8794 21.3032 32.8041 21.727C32.8071 21.9137 32.9236 21.9963 33.1026 22.0564C33.8512 22.3057 34.5597 21.7706 35.1573 21.4253C35.123 22.4632 35.1948 23.4616 34.0476 24.0331L34.8367 24.3224C34.1559 24.8385 33.9512 25.112 33.1334 25.2182C33.5131 25.4039 33.9922 25.4003 34.3955 25.4383C34.2919 25.7256 34.2041 26.115 33.9928 26.3735C35.6688 26.5721 36.3414 25.6158 36.858 25.6537C37.959 25.7369 37.8944 27.8172 35.1732 27.8203L35.4554 28.2861C35.4554 28.2861 34.9408 28.5868 34.4678 28.6442C34.6474 28.7915 34.8244 28.988 34.9757 29.1388L34.5417 29.5138C35.6493 29.7124 35.9664 28.5303 36.6852 29.0998C37.7846 29.9714 35.3631 31.8081 33.0395 31.5352C33.2355 31.7845 33.7793 32.1523 34.0164 32.3432C32.1238 34.1306 33.0534 35.8139 32.2792 37.0472C33.9076 36.9389 35.1163 35.741 35.4026 34.4461L35.8622 35.229C36.0269 34.7129 36.3286 34.1788 36.5169 33.7987C36.8842 34.561 37.4721 34.5764 38.0385 34.5805C37.9103 32.7546 40.2046 30.918 39.1975 28.8346C38.9964 28.418 39.1262 27.907 39.5597 27.6884C41.0998 26.9081 40.3852 30.1489 41.9237 30.248C41.6293 29.8786 41.5195 29.1095 41.4779 29.0428C41.8032 29.128 42.584 29.6272 42.9365 28.988C42.0397 28.4995 41.7816 27.7623 41.6385 27.0241Z" fill="#FFFFFE"/>
<path d="M26.2142 21.0323C25.7837 21.6229 25.0024 22.0189 24.1118 22.0189C23.9045 22.0189 23.7034 21.9963 23.5141 21.9589C23.5669 22.2026 23.6926 22.4535 23.9522 22.6705C23.8465 23.3769 24.1523 24.0382 24.9106 24.2121C24.9916 24.5718 25.2138 24.8447 25.5893 24.9735L25.0614 25.584C24.8577 25.8179 24.592 25.8923 24.3775 25.8656L22.017 25.5968C22.1191 25.3346 21.8462 25.0314 21.0987 25.1618L22.0253 22.5663L21.4604 21.3622L20.3892 22.278L20.3102 25.0002L19.849 24.7754C19.2544 24.5169 19.0794 25.6004 19.6453 25.605L19.8736 25.6076C19.8582 25.7189 19.8941 25.842 19.9824 25.8815C19.8756 25.9246 19.8428 26.1263 19.9767 26.1971C19.8423 26.2622 19.8228 26.4679 19.9321 26.5567C19.8156 26.7573 19.7936 27.1903 20.2066 27.3001C20.5467 27.3888 20.7601 27.0241 20.8299 26.8122L24.5032 27.9501C25.0198 28.0994 25.3933 28.0152 25.8248 27.6366L26.7836 26.7983C26.6631 27.3463 26.8596 27.8408 27.2767 28.004C27.2767 28.004 27.21 28.5062 27.2361 28.715L28.5208 28.7171H30.5447V22.6761C30.5447 22.1128 30.7048 21.5505 30.9038 21.0323H26.2142ZM20.7124 31.1976L20.7837 31.2874C20.8838 31.4105 20.9417 31.3813 21.0561 31.3156L21.2229 31.2274C21.327 31.1489 22.0109 31.409 22.0499 30.841C22.1253 31.2653 21.6205 32.158 21.9237 32.6572L22.3341 33.3293L20.9941 33.3482C20.8473 33.3482 20.7709 33.4365 20.7304 33.5175L20.38 34.2445C20.2892 34.4353 20.2953 34.6354 20.4107 34.7678L20.6478 35.0346C20.6478 35.0346 20.8417 34.8694 20.9043 34.6544L20.7991 34.5462C20.7124 34.462 20.7124 34.3846 20.7601 34.2799L20.9761 33.832C21.0597 33.6561 21.1439 33.6186 21.3342 33.6627L22.4172 33.8967C22.4972 33.9156 22.625 33.9546 22.7019 33.8223C22.8338 33.5868 23.0693 33.5714 23.3068 33.6073C23.9014 33.6966 25.2738 33.8387 25.7637 33.2672C26.3383 34.0301 27.4614 34.0301 27.3875 34.4292L27.1505 35.741H27.508L27.7251 34.4005C27.7497 34.2445 27.8456 34.0295 27.6773 33.9095C27.6086 33.8556 27.5768 33.8289 27.4203 33.5601C27.2161 33.2025 27.2269 32.6674 27.0294 32.2072C27.2161 31.9872 27.4183 31.9123 27.5947 31.9528C27.9903 32.0497 28.098 32.7326 28.6603 33.2903C28.5962 33.0425 28.5695 32.7706 28.4361 32.5351C28.4361 32.5351 28.8265 32.8378 28.9271 33.1918C28.9912 33.4144 29.0564 33.576 29.2559 33.6786C29.3888 33.7269 29.5463 33.6627 29.7049 33.4729C29.7049 33.4729 29.3339 32.946 29.0625 32.6013C28.6906 32.1272 28.1929 31.6527 27.5147 31.7076C27.3018 31.7255 27.0951 31.8225 26.8991 31.9389C26.1295 31.508 25.5313 31.9641 25.2928 31.9641L23.8511 31.8784C23.5669 31.8604 23.3438 31.5316 23.3438 31.5316C23.3068 30.3116 22.3269 29.8252 21.9888 29.8252C21.9888 29.8252 22.0206 29.6051 21.9314 29.5287L21.6297 29.9068L20.794 29.6021L21.4491 30.1387L20.7381 30.9652C20.6652 31.0468 20.6765 31.1535 20.7124 31.1976Z" fill="#FFFFFE"/>
<path d="M19.7659 32.9116C19.5648 33.0675 19.573 33.2856 19.6951 33.5287L19.8162 33.754L20.1312 33.5144L20.0599 33.3594C20.0091 33.2507 20.0106 33.1399 20.0999 33.0701L20.5508 32.7294C20.6776 32.6371 20.7171 32.6273 20.8525 32.6468L21.8057 32.8474C21.8057 32.8474 21.6621 32.6371 21.6128 32.4232L20.7155 32.3046C20.5883 32.2882 20.5119 32.3431 20.4005 32.4267L19.7659 32.9116ZM25.8607 35.7409H26.2204L26.7981 34.3157C26.8186 34.267 26.8458 34.2444 26.8678 34.2039C26.6082 34.1018 26.4564 34.0284 26.2399 33.9043C26.3851 34.0987 26.4984 34.1823 26.4384 34.3614L25.8607 35.7409ZM24.7336 15.8029L26.0844 15.2848C26.0844 15.2848 26.0844 15.4505 25.695 15.7147C25.3487 15.9548 24.7336 16.2108 24.7336 16.2108V15.8029ZM24.7336 14.8153L26.2681 14.2674C26.2681 14.2674 26.0844 14.4618 25.695 14.7291C25.3487 14.9672 24.7336 15.2232 24.7336 15.2232V14.8153ZM24.7336 13.8872L26.4123 13.2685C26.4123 13.2685 26.0844 13.5343 25.695 13.8011C25.3487 14.0412 24.7336 14.2966 24.7336 14.2966V13.8872ZM26.166 16.475L26.8329 12.639L24.3052 13.4979V17.4544L26.166 16.475Z" fill="#FFFFFE"/>
<path fill-rule="evenodd" clip-rule="evenodd" d="M21.6671 19.8687L21.7235 19.9569H22.2437L22.2494 20.0477C22.2561 20.1345 22.275 20.2242 22.3043 20.315C22.3848 20.5633 22.5449 20.8224 22.8035 21.0323C23.1021 21.2729 23.534 21.4483 24.1091 21.4483C25.3548 21.4483 25.9176 20.6418 25.972 20.0477L25.975 19.9569H26.4978L26.5532 19.8687C27.0447 19.0997 27.6445 18.2455 28.3427 18.1244L26.4414 17.0214L24.1102 18.2896L21.7774 17.0214L19.8787 18.1244C20.5738 18.2455 21.173 19.0997 21.6671 19.8687Z" fill="#FFFFFE"/>
<path d="M23.4875 14.8153V15.2232C23.4875 15.2232 22.8734 14.9682 22.5276 14.7291C22.1351 14.4613 21.953 14.2674 21.953 14.2674L23.4875 14.8153ZM23.4875 13.8873V14.2967C23.4875 14.2967 22.8734 14.0412 22.5276 13.8011C22.1351 13.5338 21.8068 13.2685 21.8068 13.2685L23.4875 13.8873ZM23.4875 16.2113C23.4875 16.2113 22.8734 15.9548 22.5276 15.7157C22.1351 15.451 22.1351 15.2848 22.1351 15.2848L23.4875 15.8029V16.2113ZM23.9128 17.4544V13.4979L21.3877 12.6385L22.052 16.475L23.9128 17.4544ZM24.1108 10.9466C22.6661 10.9466 21.5836 11.4201 21.3487 11.9747L24.1108 13.0659L26.871 11.9747C26.6365 11.4201 25.555 10.9466 24.1108 10.9466ZM24.1119 9.36333C25.1764 9.36333 26.2415 9.68552 26.9587 10.1042C27.0751 9.71835 27.2008 9.44336 27.3701 9.12785L26.7155 9.2284L26.1876 8.09922L25.2 8.62405L24.1119 7.54822L23.0222 8.62405L22.0351 8.09922L21.5026 9.2284L20.8495 9.12785C21.0203 9.44336 21.144 9.71835 21.2635 10.1042C21.9817 9.68552 23.0437 9.36333 24.1119 9.36333ZM42.1358 18.0582C42.4933 18.012 42.7796 17.8941 43.1295 17.6319C42.3753 17.4313 40.7942 16.8603 39.4444 17.1163C38.998 17.1748 38.7513 17.3559 38.9103 17.459C39.6352 17.9397 40.531 19.0545 41.182 20.3561C41.7541 19.6461 41.514 18.7123 41.3944 18.4451C42.5359 19.133 42.834 19.4675 43.3645 19.3367C43.0823 18.9037 42.6832 18.5143 42.1358 18.0582ZM7.0376 20.3561C7.68915 19.0545 8.58542 17.9397 9.31187 17.459C9.47348 17.3559 9.22312 17.1748 8.77986 17.1163C7.42853 16.8603 5.84428 17.4313 5.09012 17.6319C5.4436 17.8941 5.72628 18.012 6.08592 18.0582C5.53646 18.5153 5.13886 18.9037 4.85669 19.3367C5.38973 19.4675 5.68678 19.133 6.82674 18.4445C6.70874 18.7134 6.46762 19.6461 7.0376 20.3561Z" fill="#FFFFFE"/>
<path d="M12.8194 34.4461L12.3592 35.229C12.1935 34.7128 11.8949 34.1788 11.7036 33.7986C11.3342 34.561 10.7498 34.5764 10.1855 34.5805C10.3107 32.7546 8.01536 30.9179 9.02501 28.8345C9.22612 28.4179 9.09529 27.9069 8.66178 27.6884C7.12319 26.9081 7.83477 30.1489 6.29772 30.2479C6.59169 29.8785 6.70148 29.1095 6.74611 29.0428C6.4188 29.128 5.63642 29.6271 5.28448 28.9884C6.1828 28.4995 6.44035 27.7633 6.58194 27.024C6.76099 26.0887 6.84359 25.6552 7.02469 25.2715C7.21451 24.8616 7.51772 24.5055 8.16773 23.6626C8.01382 23.6847 6.28336 24.0505 5.89397 23.8683C8.887 22.0301 8.21339 19.6948 12.7758 17.6134C11.5794 16.7243 10.3563 16.0148 11.2336 14.3172C12.4839 15.8194 14.8592 15.3002 16.1418 14.6024C14.8746 14.3485 13.2406 13.2306 12.8528 11.9875C13.3299 11.9147 13.9491 12.4328 14.3052 12.6745C14.4765 12.2148 14.5447 11.6812 15.1009 11.5663C14.3585 13.1536 15.8248 13.9812 17.2223 13.9873C17.4393 13.9873 18.3438 13.896 18.3438 13.896C18.1986 13.5984 17.6147 12.7868 18.039 12.4595C18.3822 12.7796 18.7891 13.0361 19.16 13.3214C21.8775 15.4238 17.8677 17.3738 16.227 18.2583C13.6546 19.6492 14.3426 21.3042 15.4179 21.7269C15.4138 21.9137 15.2989 21.9963 15.1198 22.0563C14.3677 22.3056 13.6618 21.77 13.0626 21.4253C13.098 22.4642 13.0272 23.4615 14.1748 24.033L13.3837 24.3208C14.0635 24.8385 14.2708 25.1119 15.0886 25.2181C14.7069 25.4038 14.2323 25.4003 13.8265 25.4382C13.9286 25.726 14.0132 26.1149 14.2277 26.3735C12.5531 26.572 11.8826 25.6157 11.3629 25.6537C10.2578 25.7368 10.3276 27.8172 13.0472 27.8202L12.765 28.2861C12.765 28.2861 13.2801 28.5867 13.7526 28.6442C13.572 28.7904 13.3986 28.9884 13.2457 29.1387L13.6803 29.5138C12.5696 29.7123 12.2556 28.5303 11.5358 29.0997C10.4364 29.9714 12.8589 31.808 15.1809 31.5351C14.9859 31.785 14.4406 32.1523 14.2056 32.3431C16.0967 34.1305 15.164 35.8138 15.9422 37.0471C14.3103 36.9379 13.1026 35.741 12.8194 34.4461ZM14.947 32.435C15.4728 32.0184 15.9079 31.8101 15.8858 30.802C15.0968 31.2052 12.8604 31.1837 11.9262 29.8975C11.6615 29.5312 11.9447 29.3475 12.1991 29.6353C12.8384 30.3608 14.024 30.0324 14.456 29.8231C14.3877 29.5728 14.1954 29.2485 14.0338 29.1095C14.1954 28.9504 14.6535 28.7134 14.7464 28.3056C14.5016 28.1732 13.553 28.0778 13.553 28.0778C13.7054 27.9305 13.8952 27.7264 13.7819 27.183C12.8122 27.4811 11.6153 27.0763 11.3424 26.7177C11.0751 26.3648 11.348 26.0344 11.5732 26.2683C12.0555 26.7747 14.437 27.3565 15.3225 26.474C14.9942 26.3832 14.6304 26.0887 14.5658 25.9066C15.3851 25.8245 16.0387 25.3407 16.0931 24.7379C15.6396 24.7379 14.7828 24.7051 14.4914 24.4855C14.8844 24.3403 15.1327 24.1982 15.2568 23.758C13.7583 23.6672 13.6392 22.5539 13.631 22.3698C14.6068 22.9326 16.326 22.6817 15.8817 21.296C15.0696 21.2524 14.2513 19.9385 16.4845 18.7318C18.5156 17.6319 20.8238 16.4468 20.6196 14.4968C20.4867 13.248 18.4315 12.3969 18.1709 11.7654C17.3131 12.1737 17.1407 12.6478 17.528 13.4414C17.528 13.4414 15.6165 13.6313 15.4656 12.4554C15.4005 11.928 15.7524 11.4345 16.131 11.0579C15.9161 11.0579 14.4765 10.6726 14.0425 11.8454C13.2355 11.2944 12.5454 11.3149 12.0016 11.8962C12.8687 12.4108 13.4058 14.1776 14.8402 14.6989C13.8198 15.2519 12.1699 15.0206 11.2075 13.3214C10.2963 14.6938 9.77199 16.0533 11.7256 17.5042C8.16927 19.1228 8.19543 22.2153 5.10235 23.6893C5.41633 24.5312 6.07763 24.5312 6.92054 24.3993C5.58307 26.137 6.72303 27.9557 4.60522 28.6991C4.80428 29.4076 5.20188 29.974 5.98221 29.7667C5.76058 30.1125 5.61436 30.1058 5.26858 30.486C6.42598 31.215 7.79835 30.6871 8.10924 28.3487C8.16414 27.9305 8.73925 28.1922 8.5407 28.6021C7.22118 31.3294 10.5574 33.3815 9.37695 35.3829C10.4179 35.3393 11.2105 35.2577 11.644 34.9073C11.857 35.3264 11.9842 35.7425 11.9385 36.1524C12.5136 36.036 12.7224 35.6958 12.7619 35.3049C13.1395 36.4043 14.4857 37.5781 16.64 37.5781C15.4969 35.9498 16.5615 34.2963 14.947 32.435Z" fill="#1A1919"/>
<path d="M9.83505 27.9218C10.2285 28.3322 10.7046 28.3743 11.6071 28.3179C10.6154 28.1973 10.0582 27.9557 9.71089 27.2975C9.66061 26.9563 9.62727 26.5925 9.61342 26.2047C9.58212 25.1602 9.92585 23.9166 10.6477 22.5539C10.6431 23.4081 11.3198 24.7518 12.8306 24.975C11.4726 24.3814 10.6739 23.0439 11.1094 21.749C11.3921 21.2975 11.7112 20.8312 12.0678 20.3561C12.2468 20.1278 12.4212 19.9072 12.5916 19.7025C12.41 20.3618 13.2077 21.0436 13.7413 21.158C13.4524 20.8753 12.8306 19.957 14.2661 18.4215C13.8654 18.6113 13.4227 18.8796 13.0867 19.1407C15.6944 16.3237 17.8389 16.2441 18.8239 14.8271C17.3977 15.8024 13.6207 16.3288 11.9231 15.8681C12.8594 16.4935 15.1167 16.4365 15.6682 16.3196C13.828 18.109 9.80991 19.957 9.11423 21.6012C10.0926 20.5275 10.7267 20.331 11.5732 20.0544C10.9063 21.0502 10.3055 21.926 9.89097 22.9423C8.82232 25.2643 7.39301 25.2941 7.2981 27.2092C7.78599 25.725 8.77512 25.3484 9.46156 24.3742C9.34048 24.996 9.28405 25.6865 9.3056 26.4828C9.32971 27.3488 9.50363 28.1101 9.77861 28.7914C9.70884 29.7374 9.79298 31.3555 10.8786 32.4221C10.1408 31.4889 9.9828 29.9714 10.0485 29.3793C10.8975 31.0185 13.3206 33.2835 14.4913 34.8052C13.3206 32.8475 10.4502 30.5614 9.83505 27.9218ZM36.6503 20.0544C37.4927 20.331 38.1283 20.5275 39.1067 21.6012C38.4136 19.957 34.3909 18.109 32.5511 16.3196C33.1037 16.4355 35.3615 16.4935 36.2973 15.8681C34.6017 16.3288 30.8243 15.8024 29.3965 14.8271C30.3831 16.2441 32.5255 16.3237 35.1343 19.1407C34.7998 18.8796 34.3565 18.6113 33.9543 18.4215C35.3882 19.957 34.7685 20.8753 34.4776 21.1585C35.0127 21.0436 35.8104 20.3618 35.6288 19.7025C35.8002 19.9072 35.9751 20.1278 36.1532 20.3561C36.5123 20.8312 36.8293 21.2975 37.111 21.749C37.546 23.0439 36.7462 24.3814 35.3913 24.975C36.9022 24.7523 37.5799 23.4081 37.5722 22.5539C38.2946 23.9166 38.6403 25.1602 38.6075 26.2047C38.5942 26.5925 38.5603 26.9563 38.5095 27.2975C38.1612 27.9557 37.604 28.1973 36.6144 28.3179C37.5178 28.3743 37.9914 28.3322 38.3874 27.9218C37.7718 30.5614 34.9014 32.8475 33.7291 34.8052C34.9014 33.2835 37.3208 31.0185 38.1735 29.3793C38.2391 29.9714 38.0796 31.4889 37.3434 32.4221C38.4285 31.3555 38.5126 29.7374 38.4423 28.7904C38.7168 28.1101 38.8892 27.3488 38.9148 26.4828C38.941 25.6865 38.8799 24.996 38.7594 24.3742C39.4458 25.349 40.4349 25.725 40.9239 27.2092C40.83 25.2941 39.4001 25.2643 38.3289 22.9423C37.9159 21.926 37.3167 21.0502 36.6503 20.0544Z" fill="#1A1919"/>
<path d="M41.4781 29.0429C41.5196 29.1096 41.6294 29.8786 41.9239 30.248C40.3853 30.149 41.099 26.9081 39.5599 27.6884C39.1263 27.907 38.9965 28.418 39.1977 28.8346C40.2037 30.918 37.9105 32.7547 38.0392 34.5805C37.4723 34.5764 36.8844 34.561 36.5176 33.7987C36.3288 34.1788 36.0271 34.7129 35.8624 35.228L35.4022 34.4461C35.1165 35.741 33.9078 36.939 32.2794 37.0472C33.0536 35.8139 32.1229 34.1306 34.0176 32.3432C33.779 32.1524 33.2357 31.7845 33.0397 31.5352C35.3632 31.8081 37.7848 29.9715 36.6853 29.0998C35.9661 28.5303 35.6495 29.7124 34.5419 29.5138L34.9759 29.1388C34.8246 28.9885 34.6476 28.7915 34.468 28.6442C34.941 28.5868 35.4556 28.2861 35.4556 28.2861L35.1734 27.8203C37.894 27.8172 37.9592 25.7369 36.8582 25.6538C36.3416 25.6158 35.669 26.5721 33.9929 26.3735C34.2043 26.115 34.292 25.7261 34.3957 25.4383C33.9924 25.4003 33.5132 25.4039 33.1326 25.2182C33.9514 25.112 34.1561 24.8385 34.8369 24.3224L34.0488 24.0331C35.195 23.4616 35.1231 22.4642 35.158 21.4253C34.5598 21.7706 33.8513 22.3057 33.1028 22.0564C32.9238 21.9963 32.8073 21.9137 32.8037 21.727C33.8795 21.3043 34.5644 19.6492 31.9941 18.2584C30.355 17.3739 26.3421 15.4239 29.0611 13.3215C29.4331 13.0362 29.8368 12.7797 30.179 12.4596C30.6059 12.7869 30.0231 13.5985 29.8779 13.8961C29.8779 13.8961 30.7818 13.9874 30.9958 13.9874C32.3974 13.9812 33.8652 13.1537 33.1223 11.5648C33.6784 11.6808 33.7446 12.2154 33.9144 12.6735C34.271 12.4329 34.8902 11.9147 35.3699 11.9876C34.9805 13.2307 33.3491 14.3486 32.0803 14.6025C33.3614 15.3002 35.7388 15.8194 36.9885 14.3173C37.8648 16.0149 36.6433 16.7244 35.4448 17.6135C40.0077 19.6938 39.3341 22.0302 42.3277 23.8684C41.9403 24.0505 40.2063 23.6847 40.0513 23.6627C40.7049 24.5056 41.0092 24.8616 41.1969 25.2715C41.3786 25.6553 41.4591 26.0883 41.6387 27.0241C41.7818 27.7634 42.0399 28.4996 42.9366 28.9885C42.5842 29.6272 41.8034 29.128 41.4781 29.0429ZM41.3006 24.3989C42.1425 24.5307 42.8048 24.5307 43.1188 23.6894C40.0247 22.2154 40.0513 19.1228 36.4955 17.5042C38.4502 16.0534 37.9228 14.6938 37.0152 13.3215C36.0538 15.0206 34.3987 15.252 33.3829 14.699C34.8138 14.1777 35.354 12.4108 36.221 11.8957C35.6788 11.314 34.9862 11.2945 34.1781 11.8444C33.7415 10.6727 32.3045 11.058 32.0885 11.058C32.4661 11.4345 32.8227 11.9275 32.755 12.4555C32.6062 13.6313 30.6941 13.4415 30.6941 13.4415C31.0799 12.6478 30.9086 12.1738 30.0503 11.7654C29.7881 12.397 27.736 13.2481 27.6026 14.4963C27.3969 16.4469 29.7076 17.632 31.7366 18.7319C33.9693 19.9386 33.1505 21.2524 32.342 21.2961C31.8931 22.6828 33.6123 22.9326 34.5906 22.3698C34.586 22.554 34.4618 23.6673 32.9628 23.7586C33.0895 24.1983 33.3368 24.3404 33.7292 24.4856C33.4363 24.7052 32.5811 24.738 32.1286 24.738C32.1819 25.3408 32.8371 25.8246 33.6569 25.9067C33.5917 26.0883 33.2275 26.3833 32.8997 26.4741C33.7851 27.3565 36.1656 26.7747 36.6504 26.2684C36.8721 26.0344 37.1424 26.3648 36.8787 26.7168C36.6048 27.0764 35.4089 27.4812 34.4388 27.1831C34.3274 27.7259 34.5142 27.9316 34.6676 28.0778C34.6676 28.0778 33.719 28.1722 33.4732 28.3056C33.5656 28.7135 34.0258 28.9505 34.1874 29.1096C34.0258 29.2486 33.8339 29.5728 33.7646 29.8232C34.1997 30.0325 35.3843 30.3603 36.0209 29.6354C36.2785 29.3476 36.5596 29.5313 36.2964 29.8971C35.3617 31.1837 33.1244 31.2048 32.3348 30.8021C32.3127 31.8102 32.7488 32.0174 33.2737 32.435C31.6566 34.2963 32.7252 35.9498 31.5822 37.5782C33.7349 37.5782 35.0811 36.4028 35.4592 35.3049C35.5018 35.6959 35.7085 36.036 36.2821 36.1525C36.238 35.7415 36.3662 35.3265 36.575 34.9073C37.0106 35.2577 37.8053 35.3393 38.8442 35.3829C37.6662 33.3816 41.0015 31.3294 39.6784 28.6022C39.4829 28.1922 40.0575 27.9316 40.1129 28.3487C40.4223 30.6871 41.7962 31.215 42.9546 30.486C42.6062 30.1059 42.4621 30.1125 42.2394 29.7667C43.0192 29.974 43.4163 29.4076 43.6164 28.6991C41.5001 27.9557 42.6401 26.137 41.3006 24.3989ZM19.766 32.9116L20.4006 32.4289C20.5145 32.3432 20.5884 32.2883 20.7172 32.3047L21.6129 32.4232C21.6622 32.6372 21.8058 32.8475 21.8058 32.8475L20.8526 32.6469C20.7172 32.631 20.6777 32.6372 20.5509 32.7285L20.1 33.0702C20.0097 33.1399 20.0076 33.2508 20.0584 33.3595L20.1313 33.5165L19.8163 33.7551L19.6952 33.5288C19.5731 33.2856 19.5649 33.0661 19.766 32.9116ZM21.2215 31.2274L21.0563 31.3151C20.9419 31.3813 20.8839 31.4105 20.7839 31.2869L20.7125 31.1961C20.6766 31.1535 20.6653 31.0468 20.7382 30.9652L21.4477 30.1387L20.7941 29.6021L21.6268 29.9089L21.9315 29.5287C22.0208 29.6051 21.9895 29.8247 21.9895 29.8247C22.3271 29.8247 23.307 30.3116 23.3444 31.5321C23.3444 31.5321 23.5671 31.8599 23.8487 31.8769L25.2924 31.9641C25.5315 31.9641 26.1297 31.508 26.8992 31.9389C27.0931 31.8225 27.3019 31.7286 27.5149 31.7045C28.1931 31.6542 28.6907 32.1272 29.0627 32.6023C29.3341 32.946 29.706 33.4729 29.706 33.4729C29.546 33.6627 29.389 33.7269 29.2561 33.6786C29.0565 33.576 28.9914 33.4144 28.9272 33.1918C28.8257 32.8378 28.4363 32.5351 28.4363 32.5351C28.5691 32.7726 28.5963 33.0425 28.6605 33.2903C28.0956 32.7326 27.9899 32.0497 27.5949 31.9559C27.4199 31.9123 27.2163 31.9872 27.028 32.2057C27.227 32.6674 27.2163 33.2025 27.4205 33.5601C27.5759 33.8274 27.6082 33.852 27.6775 33.9095C27.8442 34.0295 27.7498 34.2445 27.7247 34.4005L27.5107 35.7415H27.1506L27.3876 34.4292C27.4605 34.0295 26.3385 34.0295 25.7639 33.2672C25.2739 33.8397 23.9016 33.6966 23.307 33.6073C23.0679 33.5714 22.8339 33.5868 22.7021 33.8228C22.6251 33.9546 22.4958 33.9151 22.4174 33.8967L21.3343 33.6627C21.144 33.6186 21.0614 33.6561 20.9768 33.831L20.7603 34.2794C20.7125 34.3846 20.7156 34.4615 20.8018 34.5462L20.9039 34.656C20.8418 34.8709 20.6469 35.0346 20.6469 35.0346L20.4109 34.7683C20.2954 34.6344 20.2893 34.4395 20.3801 34.2496L20.7305 33.5175C20.7726 33.4365 20.8475 33.3482 20.9942 33.3482L22.3342 33.3277L21.9238 32.6592C21.6186 32.158 22.1254 31.2648 22.05 30.8426C22.0115 31.409 21.3272 31.1504 21.2215 31.2274ZM26.7981 34.3158L26.2194 35.7415H25.8608L26.4385 34.361C26.4985 34.1824 26.3852 34.0993 26.24 33.9044C26.4549 34.0254 26.6083 34.105 26.8679 34.204C26.8459 34.2445 26.8187 34.2671 26.7981 34.3158ZM19.747 34.1542L20.3975 33.6027L20.2985 33.4052C20.2277 33.2636 20.2657 33.2554 20.3406 33.1989L20.6843 32.9429C20.7633 32.8778 20.8475 32.8855 20.9439 32.9086L21.9756 33.1507H20.8875C20.6361 33.1676 20.5632 33.2636 20.4724 33.4503L20.3975 33.6027L20.1179 34.1778C20.023 34.3753 19.9733 34.6395 20.2231 34.9371L20.4206 35.1726L20.0199 35.9832H20.3575L20.6346 35.4209C20.6566 35.4004 21.066 35.0269 21.1527 34.6395C21.0347 34.5431 20.9501 34.4759 21.0157 34.341L21.1414 34.0721C21.1825 33.9829 21.1968 33.9464 21.3169 33.97L22.3989 34.204C22.5338 34.2414 22.7318 34.3004 22.8765 34.0829C23.0243 33.8567 23.0448 33.8808 23.3885 33.9151L23.9411 33.9736C24.6962 34.0454 25.4499 33.8567 25.7439 33.6237C25.8465 33.8587 26.0507 34.0372 26.1466 34.2199C26.1815 34.2876 26.123 34.383 26.0763 34.502L25.456 35.9832H26.4123L26.9536 34.6313C27.0039 34.502 27.0767 34.3989 27.1326 34.3471L26.8223 35.9832H27.7503L27.9966 34.3646C28.051 34.0049 28.0187 33.8885 27.8458 33.7407C27.4589 33.4144 27.4677 32.7285 27.343 32.3124C27.4087 32.2745 27.4846 32.2555 27.5759 32.2662C27.7786 32.2842 27.9304 32.8008 28.169 33.1333C28.6435 33.8007 29.292 34.5374 30.0344 33.4996C29.9625 33.3816 29.8851 33.2733 29.7953 33.1707L29.588 32.9275C29.4675 32.7931 28.8929 32.1359 28.6528 31.8989C28.1089 31.35 27.2722 31.4341 26.9387 31.6999C26.1846 31.3043 25.3883 31.7199 25.2 31.7045L23.9005 31.626C23.8415 31.6219 23.7512 31.6024 23.6881 31.5008L23.9298 31.4218C23.7035 30.4814 23.1356 29.6934 22.1429 29.5585C22.1429 29.5585 22.0849 29.2614 21.933 29.204L21.637 29.5533C21.5529 29.5646 21.4621 29.5908 21.3877 29.6231L20.1205 29.1516L21.0722 30.1125C21.0722 30.1125 20.5781 30.8113 20.4381 30.9544C20.3442 31.0847 20.3534 31.1868 20.4581 31.312L20.6423 31.5542C20.7382 31.6798 20.8418 31.6747 20.9942 31.5973L21.203 31.489C21.2938 31.4126 21.5985 31.5629 21.7299 31.4428C21.6457 31.7168 21.6042 31.9795 21.5852 32.1883L20.7305 32.0862C20.5443 32.061 20.4596 32.0862 20.3457 32.1744L19.6172 32.7357C19.3797 32.9183 19.3058 33.2328 19.452 33.5396L19.747 34.1542ZM22.5277 15.7158C22.8734 15.9549 23.4875 16.2114 23.4875 16.2114V15.803L22.1352 15.2848C22.1352 15.2848 22.1352 15.4511 22.5277 15.7158ZM23.4875 15.2233V14.8154L21.9531 14.2675C21.9531 14.2675 22.1352 14.4619 22.5277 14.7292C22.8734 14.9673 23.4875 15.2233 23.4875 15.2233ZM23.4875 14.2967V13.8873L21.8068 13.2686C21.8068 13.2686 22.1352 13.5344 22.5277 13.8011C22.8734 14.0412 23.4875 14.2967 23.4875 14.2967Z" fill="#1A1919"/>
<path d="M28.211 19.8687H29.9296C29.8588 19.6189 29.5915 19.367 29.0893 19.367C28.6152 19.367 28.3295 19.642 28.211 19.8687ZM26.4123 13.2686L24.7336 13.8873V14.2967C24.7336 14.2967 25.3487 14.0412 25.695 13.8011C26.086 13.5343 26.4123 13.2686 26.4123 13.2686ZM26.0855 15.2848L24.7336 15.8029V16.2113C24.7336 16.2113 25.3487 15.9548 25.695 15.7157C26.0855 15.451 26.0855 15.2848 26.0855 15.2848ZM26.2681 14.2674L24.7336 14.8154V15.2232C24.7336 15.2232 25.3493 14.9682 25.695 14.7292C26.0855 14.4619 26.2681 14.2674 26.2681 14.2674ZM19.1272 19.367C18.626 19.367 18.3592 19.6189 18.2874 19.8687H20.0081C19.8855 19.6415 19.6043 19.367 19.1272 19.367Z" fill="#1A1919"/>
<path d="M24.1108 13.0659L21.3487 11.9747C21.5836 11.4201 22.6661 10.9466 24.1108 10.9466C25.555 10.9466 26.6365 11.4201 26.871 11.9747L24.1108 13.0659ZM26.1661 16.475L24.3053 17.4544V13.4979L26.834 12.6391L26.1661 16.475ZM28.3429 18.1244C27.6446 18.2455 27.0449 19.0997 26.5534 19.8688L26.4985 19.957H25.9742L25.9721 20.0478C25.9178 20.6419 25.355 21.4484 24.1093 21.4484C23.5347 21.4484 23.1022 21.2724 22.8036 21.0323C22.5451 20.8225 22.3845 20.5634 22.3045 20.3151C22.2752 20.2253 22.2562 20.1345 22.2485 20.0478L22.2439 19.957H21.7237L21.6673 19.8688C21.1732 19.0997 20.574 18.2455 19.8788 18.1244L21.7776 17.0214L24.1108 18.2896L26.4416 17.0214L28.3429 18.1244ZM30.9044 21.0323C30.7049 21.5505 30.5448 22.1128 30.5448 22.6761V28.7171H29.8425C29.5228 28.4077 29.2535 27.3785 29.2535 27.3785C29.0786 27.7495 29.2791 28.4995 29.4659 28.7171H28.5614C28.3367 28.4138 28.1428 27.3411 28.1428 27.3411C27.8724 27.6494 28.0438 28.4846 28.2115 28.7171H27.6103C27.5728 28.2882 27.6954 27.8203 27.6954 27.8203C27.3809 27.7623 27.0464 27.5971 27.0469 27.2472C27.2065 27.396 27.2711 27.3934 27.4912 27.3888L27.7467 27.1877C26.8992 27.2154 26.8597 26.2848 27.5318 25.8497C26.8597 25.8713 26.3584 25.4716 26.6027 24.7585C26.125 24.5117 25.9567 23.7032 26.3097 23.3471C26.0542 23.0701 26.0116 22.5258 26.1753 22.1538C25.8372 22.1538 25.456 22.0189 25.2436 21.788C25.2272 21.7957 25.2077 21.8008 25.1903 21.807C25.6135 21.6341 25.9721 21.3658 26.2143 21.0323H30.9044ZM30.5463 33.0332C30.5463 34.2932 29.964 35.251 28.9954 35.781L29.3433 35.0756H29.0072L28.5619 35.9796C28.1012 36.1545 27.5769 36.2499 26.9992 36.2499C25.2313 36.2499 24.7639 36.3217 24.1119 36.9733C23.4557 36.3217 22.9894 36.2499 21.2245 36.2499C20.6499 36.2499 20.1271 36.156 19.6685 35.9831H19.6798L20.1256 35.0756H19.7906L19.3997 35.8698C19.3058 35.8256 19.216 35.7784 19.1288 35.7261L19.4499 35.0756H19.116L18.8774 35.5604C18.1202 35.0033 17.6759 34.1331 17.6759 33.0332V29.0716H30.5463V33.0332ZM21.7853 25.7979L22.327 25.8656C22.3681 26.1621 22.2906 26.6665 22.0972 26.9476L21.5713 26.7963C21.7114 26.4633 21.7463 26.1524 21.7853 25.7979ZM21.0034 25.4008C21.0034 25.4008 21.5021 25.3772 21.6426 25.43C21.7463 25.4731 21.6755 25.6476 21.5416 25.6281C21.4015 25.6111 21.0034 25.4008 21.0034 25.4008ZM20.9706 23.4241L20.5232 25.055L20.6761 22.4237L21.3692 21.8306L21.7222 22.6048L20.8305 25.1602L21.066 23.44C21.0881 23.3204 20.9906 23.3066 20.9706 23.4241ZM20.6268 26.1437C20.3929 26.237 20.1533 26.1098 20.2272 25.9585C20.3354 26.057 20.6386 26.0087 20.6386 26.0087L20.6268 26.1437ZM20.1867 26.3612C20.2954 26.4653 20.6227 26.4258 20.6227 26.4258L20.6345 26.4915C20.4914 26.6818 20.0958 26.5957 20.1867 26.3612ZM19.6731 25.31C19.5479 25.2264 19.6044 25.0453 19.7434 25.0453C19.8947 25.0489 20.0984 25.2212 20.2985 25.3069C20.2985 25.3069 19.7737 25.3782 19.6731 25.31ZM20.1708 26.7573C20.1708 26.7573 20.3206 26.8199 20.5114 26.8352C20.4893 26.9394 20.4083 27.0399 20.2805 27.0112C20.1738 26.9876 20.1256 26.8547 20.1708 26.7573ZM20.5232 25.7712C20.2713 25.8528 20.1605 25.6707 20.1713 25.5157C20.6653 25.3362 20.8854 25.4521 21.0296 25.5439C21.1619 25.6281 21.2727 25.8656 21.4508 26.0144C21.422 26.217 21.3594 26.5095 21.2871 26.7054C20.7823 26.5762 20.7561 26.1308 20.9439 25.8605C20.8387 25.7368 20.7269 25.7055 20.5232 25.7712ZM22.7118 25.9159L23.252 25.98C23.3054 26.2771 23.2043 26.9081 23.0006 27.2092L22.4496 27.0497C22.6703 26.7609 22.7508 26.2473 22.7118 25.9159ZM23.6414 26.0298L24.0872 26.0852C24.1586 26.4556 24.1119 27.0964 23.8754 27.4606L23.3572 27.3103C23.584 27.001 23.6912 26.3648 23.6414 26.0298ZM24.4402 26.1288H24.45C24.5659 26.1462 24.688 26.1262 24.7993 26.0806C25.04 26.4258 25.2287 27.2092 24.9394 27.6982C24.7757 27.7012 24.6146 27.6725 24.4648 27.6299L24.3448 27.594C24.589 27.2154 24.5536 26.5469 24.4402 26.1288ZM25.1215 25.8656L25.4386 25.5557C25.7603 25.8369 26.183 26.4653 26.0511 27.062L25.7059 27.3785C25.6351 27.4468 25.5612 27.4981 25.4863 27.5437C25.7013 27.0112 25.4273 26.1904 25.1215 25.8656ZM26.9761 26.0426C26.9079 26.135 26.8515 26.2427 26.8156 26.3597L26.4313 26.7121C26.5083 26.1509 26.1307 25.4855 25.7859 25.2151L26.1943 24.8144L26.2759 24.8965C26.1394 25.2546 26.4062 25.9585 26.9761 26.0426ZM25.9567 23.3246C25.7546 23.7098 25.7751 24.1541 26.0132 24.5574L25.8547 24.7128C25.1656 24.6266 24.8937 23.5995 24.8937 23.5995C24.8799 23.6919 24.8717 23.7822 24.8732 23.874C24.4715 23.7252 24.217 23.3677 24.2376 22.8787C24.3894 22.9634 24.5608 23.0234 24.7419 23.0547L24.7891 22.7546C24.3079 22.6704 24.0267 22.3698 23.92 22.0143C23.8969 22.0122 23.8764 22.0066 23.8543 22.005C23.9405 22.0122 24.0241 22.0189 24.1119 22.0189C24.3976 22.0189 24.668 21.9748 24.9225 21.8999C25.122 22.1846 25.4776 22.3888 25.8331 22.4283C25.7777 22.6612 25.8049 22.9577 25.9567 23.3246ZM22.0064 21.0323C22.3388 21.4869 22.878 21.8239 23.5168 21.9558C23.5706 22.1959 23.7004 22.4586 23.9539 22.6704C23.8487 23.3769 24.1524 24.0366 24.9127 24.2121C24.9917 24.5717 25.2159 24.8447 25.5894 24.9734L25.0615 25.584C24.8604 25.8179 24.5967 25.8923 24.3776 25.8656L22.0172 25.5968C22.1193 25.3346 21.8473 25.0314 21.1004 25.1617L22.0284 22.5663L21.4621 21.3622L20.3888 22.278L20.3103 25.0001L19.8542 24.7754C19.2545 24.5168 19.08 25.6004 19.6495 25.605L19.8758 25.6076C19.8614 25.7189 19.8947 25.842 19.9825 25.8795C19.8758 25.9246 19.8429 26.1262 19.9784 26.1981C19.8424 26.2622 19.8239 26.4679 19.9337 26.5567C19.8142 26.7573 19.7962 27.1903 20.2103 27.3001C20.5483 27.3888 20.7602 27.024 20.8305 26.8122L24.5033 27.9501C25.024 28.0994 25.3934 28.0152 25.8249 27.6366L26.7838 26.7983C26.6632 27.3462 26.8607 27.8408 27.2783 28.0039C27.2783 28.0039 27.2178 28.4964 27.2368 28.7171H17.6759V22.6761C17.6759 22.1128 17.5132 21.5505 17.3198 21.0323H22.0064ZM21.3861 12.6391L23.9128 13.4979V17.4544L22.0515 16.475L21.3861 12.6391ZM27.5256 12.1681C27.5256 11.2011 25.9013 10.3356 24.1093 10.3356C22.3163 10.3356 20.692 11.2011 20.692 12.1681L20.7289 12.4051L21.4426 16.5125L18.055 18.4872C17.6949 18.698 17.2439 19.2818 17.1864 19.8688H17.8046C17.9067 19.2824 18.37 18.6318 19.234 18.6724C20.0158 18.7134 20.4791 19.189 20.9393 19.8688L21.0578 20.0478L21.2281 20.3151H16.2471C16.6129 21.0503 16.9612 21.8301 16.9612 22.6761V33.0332C16.9612 35.6984 19.0077 36.9671 21.2245 36.9671C22.936 36.9671 23.1669 36.8892 24.1119 37.8342C25.0538 36.8892 25.2836 36.9671 26.9992 36.9671C29.2135 36.9671 31.262 35.6984 31.262 33.0332V22.6761C31.262 21.8301 31.6088 21.0503 31.9746 20.3151H26.99L27.1613 20.0478L27.2804 19.8688C27.7385 19.189 28.2033 18.7134 28.9857 18.6724C29.8471 18.6318 30.3124 19.2824 30.4145 19.8688H31.0312C30.9763 19.2818 30.5227 18.698 30.1631 18.4872L26.7761 16.5125L27.4907 12.4051L27.5256 12.1681Z" fill="#1A1919"/>
<path d="M30.2524 24.936L30.2576 24.6333C29.3279 24.6112 29.1155 23.5154 29.1155 23.5154C28.8431 24.3224 29.5526 24.9237 30.2524 24.936ZM29.0786 26.7921L28.9857 26.5059C28.1931 26.7085 27.7832 25.4526 27.7832 25.4526C27.5298 26.3648 28.4142 27.0112 29.0786 26.7921ZM29.6296 25.6281C28.6825 25.7779 28.2937 24.6764 28.2937 24.6764C28.189 25.2761 28.5774 25.8846 29.2043 25.9487C29.0627 26.7321 29.7897 27.1328 30.4192 26.8542L30.3284 26.5813C29.7815 26.7649 29.2684 26.2237 29.6296 25.6281ZM29.0627 22.4847L29.0714 22.1815C27.8217 21.924 27.9258 21.0636 27.9258 21.0636C27.656 21.8737 28.3655 22.4719 29.0627 22.4847Z" fill="#1A1919"/>
<path fill-rule="evenodd" clip-rule="evenodd" d="M21.1438 35.0759L20.6958 35.9839H21.0318L21.4788 35.0759H21.1438Z" fill="#1A1919"/>
<path fill-rule="evenodd" clip-rule="evenodd" d="M21.8178 35.0759L21.3728 35.9839H21.7108L22.1538 35.0759H21.8178Z" fill="#1A1919"/>
<path fill-rule="evenodd" clip-rule="evenodd" d="M24.5239 35.0759L24.0789 35.9839H24.4139L24.8609 35.0759H24.5239Z" fill="#1A1919"/>
<path fill-rule="evenodd" clip-rule="evenodd" d="M25.2019 35.0759L24.7539 35.9839H25.0919L25.5369 35.0759H25.2019Z" fill="#1A1919"/>
<path fill-rule="evenodd" clip-rule="evenodd" d="M23.8479 35.0759L23.4019 35.9839H23.7379L24.1839 35.0759H23.8479Z" fill="#1A1919"/>
<path fill-rule="evenodd" clip-rule="evenodd" d="M27.8008 35.9839H28.1368L28.5838 35.0759H28.2478L27.8008 35.9839Z" fill="#1A1919"/>
<path fill-rule="evenodd" clip-rule="evenodd" d="M22.4958 35.0759L22.0508 35.9839H22.3868L22.8328 35.0759H22.4958Z" fill="#1A1919"/>
<path fill-rule="evenodd" clip-rule="evenodd" d="M23.1709 35.0759L22.7239 35.9839H23.0619L23.5089 35.0759H23.1709Z" fill="#1A1919"/>
<path d="M21.6396 30.1987C21.579 30.1987 21.5246 30.2587 21.5246 30.3357C21.5246 30.4106 21.579 30.4721 21.6396 30.4721C21.7037 30.4721 21.7581 30.4106 21.7581 30.3357C21.7581 30.2587 21.7037 30.1987 21.6396 30.1987ZM21.5026 9.22845L22.0351 8.09978L23.0222 8.6241L24.1119 7.54827L25.2015 8.6241L26.1876 8.09978L26.714 9.22845L27.3701 9.1279C27.2019 9.44341 27.0751 9.71737 26.9587 10.1042C26.2415 9.68556 25.1764 9.36338 24.1119 9.36338C23.0437 9.36338 21.9812 9.68556 21.2635 10.1042C21.144 9.71737 21.0193 9.44341 20.8495 9.1279L21.5026 9.22845ZM24.1119 9.72302C25.4986 9.72302 26.6088 10.1822 27.2224 10.6762C27.2224 10.6762 27.406 9.57526 28.0273 8.60871L26.9094 8.73389L26.3256 7.49029L25.2015 8.07464L24.1119 6.99316L23.0222 8.07464L21.8961 7.49029L21.3112 8.73389L20.1943 8.60871C20.8166 9.57526 20.9983 10.6762 20.9983 10.6762C21.6103 10.1822 22.7236 9.72302 24.1119 9.72302Z" fill="#1A1919"/>
<path d="M25.2519 7.49801C25.414 7.51135 25.5581 7.38873 25.572 7.22866C25.5879 7.06706 25.3509 6.63354 25.3509 6.63354C25.3509 6.63354 24.9959 7.01524 24.9846 7.17839C24.9692 7.33845 25.0913 7.48159 25.2519 7.49801ZM27.0829 8.16136C27.227 8.23934 27.403 8.18188 27.481 8.0372C27.5595 7.89509 27.5082 7.40463 27.5082 7.40463C27.5082 7.40463 27.0367 7.61754 26.9587 7.76222C26.8849 7.90484 26.9387 8.08286 27.0829 8.16136ZM22.9673 7.49801C23.1325 7.48159 23.2521 7.33845 23.2377 7.17839C23.2228 7.01524 22.8714 6.63354 22.8714 6.63354C22.8714 6.63354 22.6349 7.06706 22.6503 7.22866C22.6631 7.38873 22.8078 7.51135 22.9673 7.49801ZM21.1394 8.16136C21.283 8.08286 21.3379 7.90484 21.261 7.76222C21.185 7.61754 20.7125 7.40463 20.7125 7.40463C20.7125 7.40463 20.6623 7.89509 20.7413 8.0372C20.8167 8.18188 20.9952 8.23934 21.1394 8.16136ZM41.394 18.4451C41.514 18.7134 41.7536 19.6451 41.1821 20.3562C40.531 19.0546 39.6353 17.9398 38.9104 17.4591C38.7518 17.3559 38.9981 17.1748 39.4444 17.1164C40.7942 16.8604 42.3754 17.4314 43.1295 17.632C42.7786 17.8941 42.4939 18.0121 42.1358 18.0562C42.6832 18.5154 43.0823 18.9038 43.3645 19.3368C42.834 19.4676 42.536 19.1326 41.394 18.4451ZM43.0967 18.224C43.4866 18.0855 43.7883 17.7135 43.9386 17.3693C42.9459 17.2267 40.3099 16.1195 38.1423 17.0209C38.954 16.2504 39.683 16.1508 39.7522 15.0427C40.0888 15.2848 40.6577 15.4213 40.9779 14.8436C40.7542 14.1839 40.1904 14.7179 40.1109 14.5368C40.0006 14.2839 40.8229 14.6143 40.9984 13.757C40.3592 13.5374 40.1678 14.0597 40.0539 13.9386C39.9482 13.8232 40.4597 13.6031 40.0831 12.912C39.4177 13.3014 39.764 13.7406 39.6235 13.7899C39.4531 13.8571 39.587 13.3215 38.8519 13.3456C38.7795 14.1367 39.5429 14.1608 39.4177 14.287C39.2664 14.4399 39.0668 13.8324 38.5112 14.1403C38.521 14.779 39.0376 15.1294 39.5717 14.9785C39.4844 16.1919 38.3727 15.9656 37.5431 17.3318C39.2982 18.2317 40.0924 19.8006 41.1723 20.8856C41.5289 20.6327 42.1384 19.5076 42.1384 19.5076C43.3071 20.4126 44.1289 19.5112 44.1289 19.5112C43.7267 19.0992 43.7124 18.7858 43.0967 18.224ZM23.7851 39.7468L23.0243 39.7186L22.9376 40.0228L23.033 40.0279C23.0648 40.0279 23.0648 39.9684 23.0925 39.9361C23.1074 39.9243 23.2454 39.9017 23.3542 39.913L23.6727 39.9371C23.4855 40.3275 22.9945 40.6949 23.0007 40.9539C23.0079 41.092 23.1479 41.1191 23.2315 41.1156C23.3849 41.1099 23.4326 41.0022 23.4727 40.836C23.5655 40.4517 23.7512 40.1593 23.8857 39.7186L23.7913 39.7216L23.7851 39.7468ZM24.3053 40.2008L24.3166 39.9664H24.9774L24.9425 39.7047C24.7619 39.7109 24.4967 39.7699 24.2535 39.7714L24.2073 40.2824C24.5136 40.269 24.7132 40.4024 24.7132 40.7231C24.7132 40.8426 24.6347 41.0658 24.4967 41.0827C24.4649 41.0873 24.4228 41.0766 24.4028 41.0607C24.3366 41.0109 24.4233 40.956 24.4233 40.8739C24.4233 40.7672 24.3146 40.7298 24.2422 40.7431C24.1288 40.7503 24.0883 40.8242 24.0883 40.9144C24.0883 41.1027 24.3679 41.1551 24.4874 41.1551C24.7588 41.1551 25.0718 41.0042 25.0718 40.6969C25.0718 40.2926 24.6193 40.2095 24.3053 40.2008ZM25.9289 40.4091C25.6773 40.4091 25.6411 40.0423 25.6411 39.8643C25.6411 39.814 25.6893 39.7432 25.7458 39.7432C25.9749 39.7432 26.038 40.2424 26.0566 40.3829C26.0193 40.3963 25.9749 40.4091 25.9289 40.4091ZM25.7683 39.6739C25.515 39.6739 25.3073 39.8504 25.3073 40.0915C25.3073 40.4722 25.7442 40.5974 26.0681 40.4532C26.1076 40.7487 26.0435 40.9606 25.924 40.9678C25.822 40.9678 25.8368 40.896 25.822 40.8349C25.7951 40.72 25.6981 40.6892 25.5983 40.72C25.4926 40.7487 25.4767 40.836 25.4947 40.9021C25.5419 41.0514 25.7392 41.0545 25.8341 41.0437C26.2496 40.9996 26.4239 40.7108 26.4239 40.3901C26.4239 40.0187 26.1964 39.6739 25.7683 39.6739ZM22.4912 39.5959C22.4558 39.6396 22.2927 39.8427 21.9423 40.1044L21.9715 40.1552C22.01 40.1346 22.0721 40.1059 22.1778 40.0423L21.9715 40.7641C21.9597 40.8031 21.912 40.8067 21.8889 40.8031L21.7663 40.7857L21.7432 40.8703L22.4143 40.9904L22.4348 40.9052L22.3189 40.8801C22.2845 40.8703 22.2634 40.8457 22.2691 40.8067L22.5749 39.6088L22.4912 39.5959Z" fill="#1A1919"/>
<path d="M27.5712 40.448L26.9761 38.5129C28.2443 38.2507 29.1268 37.9814 29.8004 37.7213V38.9284L30.8459 39.3496C29.9625 39.7524 28.8667 40.152 27.5712 40.448ZM24.1119 41.5803C22.9293 41.5803 21.7745 41.4033 20.7879 41.1612L21.4159 39.1311C21.8319 39.228 22.8734 39.3558 24.1119 39.3558C25.3508 39.3558 26.3882 39.228 26.8063 39.1311L27.4363 41.1612C26.4451 41.4033 25.2908 41.5803 24.1119 41.5803ZM17.3742 39.3496L18.4208 38.9284V37.7213C19.0944 37.9814 19.9768 38.2507 21.245 38.5129L20.6504 40.448C19.3581 40.152 18.2592 39.7524 17.3742 39.3496ZM30.1241 38.6776V37.1964C28.9795 37.7213 27.5225 38.1466 25.6494 38.3148L25.5643 38.8443C25.7233 38.8669 25.9254 38.8864 26.1943 38.9038C25.5001 38.9987 24.6033 39.0449 24.1119 39.0449C23.6193 39.0449 22.7236 38.9987 22.0284 38.9038C22.2967 38.8864 22.4973 38.8669 22.6564 38.8443L22.5717 38.3148C20.6981 38.1466 19.2396 37.7213 18.0981 37.1964V38.6776L16.5451 39.3147C17.6948 39.9129 19.0185 40.4008 20.5483 40.7948L20.3672 41.4151C21.2435 41.6716 22.6436 41.9348 24.1119 41.9348C25.5796 41.9348 26.9787 41.6716 27.8549 41.4151L27.6744 40.7948C29.2022 40.4008 30.5289 39.9129 31.6786 39.3147L30.1241 38.6776ZM4.85514 19.3367C5.13885 18.9037 5.53594 18.5153 6.08693 18.0582C5.72627 18.0121 5.44359 17.8941 5.09011 17.6319C5.84427 17.4313 7.43006 16.8603 8.77985 17.1163C9.22311 17.1748 9.47347 17.3559 9.31084 17.458C8.58541 17.9397 7.68914 19.0545 7.03759 20.3556C6.46761 19.645 6.70873 18.7134 6.82673 18.4451C5.68677 19.133 5.38972 19.4675 4.85514 19.3367ZM6.08283 19.5075C6.08283 19.5075 6.69334 20.6326 7.04785 20.885C8.12983 19.8005 8.92452 18.2316 10.6781 17.3318C9.84798 15.9656 8.73419 16.1949 8.65159 14.9785C9.18463 15.1293 9.70023 14.7774 9.711 14.1402C9.15334 13.8339 8.95428 14.4429 8.80396 14.2869C8.67929 14.1587 9.44269 14.1366 9.37035 13.3465C8.63415 13.3234 8.76907 13.857 8.59618 13.7898C8.45818 13.7395 8.80396 13.3009 8.13599 12.912C7.76096 13.6061 8.274 13.8226 8.1678 13.9386C8.05442 14.0596 7.86152 13.5374 7.22279 13.757C7.3962 14.6142 8.22218 14.2838 8.10983 14.5368C8.03133 14.7179 7.46751 14.1838 7.24588 14.8436C7.56345 15.4212 8.13343 15.2848 8.46741 15.0436C8.53924 16.1554 9.2662 16.2482 10.0799 17.0209C7.91282 16.1195 5.27583 17.2256 4.28003 17.3708C4.43343 17.7135 4.73407 18.0854 5.12448 18.2209C4.50936 18.7878 4.49499 19.0997 4.09277 19.5111C4.09277 19.5111 4.9126 20.4125 6.08283 19.5075ZM23.1617 18.681V19.3336C23.3864 19.0633 23.8205 19.1166 23.8205 19.1166V20.055C23.8205 20.055 23.8056 20.5187 23.6414 20.7173H24.5818C24.4181 20.5187 24.4027 20.055 24.4027 20.055V19.1166C24.4027 19.1166 24.8363 19.0633 25.0615 19.3336V18.681H23.1617Z" fill="#1A1919"/>
</svg>
