<svg width="48" height="48" viewBox="0 0 48 48" fill="none" xmlns="http://www.w3.org/2000/svg">
<g opacity="0.9">
<path opacity="0.9" fill-rule="evenodd" clip-rule="evenodd" d="M21.0791 22.748H29.6181V38.155H21.0791V22.748Z" fill="#FF5F00"/>
<path opacity="0.9" fill-rule="evenodd" clip-rule="evenodd" d="M21.6362 30.4514C21.6362 27.3267 23.0903 24.5422 25.3488 22.7477C23.7091 21.4483 21.6052 20.6439 19.3467 20.6439C13.9634 20.6439 9.60107 25.0372 9.60107 30.4514C9.60107 35.8657 13.9634 40.259 19.3467 40.259C21.6362 40.259 23.7091 39.4546 25.3488 38.1552C23.0903 36.3607 21.6362 33.5762 21.6362 30.4514Z" fill="#EB001B"/>
<path opacity="0.9" fill-rule="evenodd" clip-rule="evenodd" d="M41.1273 30.4514C41.1273 35.8657 36.765 40.259 31.3817 40.259C29.0922 40.259 27.0193 39.4546 25.3796 38.1552C27.6381 36.3607 29.0922 33.5762 29.0922 30.4514C29.0922 27.3267 27.6381 24.5422 25.3486 22.7477C27.0193 21.4483 29.1231 20.6439 31.3817 20.6439C36.765 20.6439 41.1273 25.0372 41.1273 30.4514Z" fill="#F79E1B"/>
<path opacity="0.9" d="M22.8737 7.30941L20.4605 18.5401H17.5522L19.9964 7.30941H22.8737ZM35.1253 14.549L36.6413 10.3414L37.5076 14.58H35.1253V14.549ZM38.3739 18.5401H41.0656L38.7142 7.30941H36.2391C35.6822 7.30941 35.2182 7.6188 35.0016 8.14475L30.6392 18.5401H33.7022L34.29 16.8694H38.0026L38.3739 18.5401ZM30.7939 14.8584C30.8249 11.8883 26.6791 11.7336 26.7101 10.4033C26.7101 10.0011 27.0813 9.56793 27.9476 9.47511C28.3807 9.41323 29.5255 9.3823 30.8249 9.97013L31.3199 7.6188C30.6083 7.34035 29.7111 7.12378 28.5973 7.12378C25.72 7.12378 23.709 8.63977 23.6781 10.8364C23.6471 12.4452 25.1322 13.3734 26.215 13.8993C27.3288 14.4562 27.731 14.8275 27.731 15.2916C27.731 16.065 26.8029 16.3744 25.9985 16.4054C24.5443 16.4363 23.6781 16.0032 22.9974 15.6938L22.4715 18.1689C23.1521 18.4782 24.3897 18.7567 25.6891 18.7567C28.7829 18.7257 30.763 17.2098 30.7939 14.8584ZM18.7588 7.30941L14.0252 18.5401H10.9623L8.61098 9.56793C8.48723 9.01103 8.36347 8.8254 7.96127 8.57789C7.24968 8.20663 6.10496 7.83537 5.08398 7.6188L5.14586 7.30941H10.096C10.7457 7.30941 11.2717 7.74255 11.4264 8.45414L12.6639 14.9512L15.6959 7.30941H18.7588Z" fill="#2A2A6C"/>
</g>
</svg>
