<svg width="48" height="48" viewBox="0 0 48 48" fill="none" xmlns="http://www.w3.org/2000/svg">
<path d="M15.7592 35.4312L14.6415 39.303H14.4503L13.3326 35.4312C13.1414 34.776 12.5413 34.325 11.8555 34.325H9.17505V42.7534H11.8588V37.7721H12.05L13.5865 42.7534H15.5053L17.0384 37.7721H17.2296V42.7534H19.9134V34.325H17.2329C16.5505 34.325 15.9504 34.776 15.7592 35.4312ZM30.6188 42.7534H33.319V40.2611H36.0359C37.4568 40.2611 38.6669 39.4578 39.135 38.3285H30.6188V42.7534ZM25.8348 35.2139L23.9457 39.3063H23.7544V34.325H21.0707V42.7534H23.3489C23.949 42.7534 24.4929 42.4044 24.7435 41.8645L26.6327 37.7754H26.824V42.7534H29.5077V34.325H27.2295C26.6294 34.325 26.0854 34.6739 25.8348 35.2139Z" fill="#006848"/>
<path fill-rule="evenodd" clip-rule="evenodd" d="M36.303 34.325C37.0778 34.325 37.7801 34.6213 38.3109 35.1085C38.9043 35.6485 39.2769 36.4255 39.2769 37.2914C39.2769 37.4692 39.2571 37.6437 39.2274 37.8149H34.2424C32.5543 37.8149 31.1234 36.7086 30.642 35.181C30.6354 35.1645 30.6321 35.1448 30.6255 35.125C30.6123 35.0789 30.6025 35.0295 30.5893 34.9834C30.5398 34.7694 30.5068 34.5521 30.4937 34.325H36.303Z" fill="url(#paint0_linear_7990_1237)"/>
<path fill-rule="evenodd" clip-rule="evenodd" d="M20.3191 17.671H27.3911V30.433H20.3191V17.671Z" fill="#FF5F00"/>
<path fill-rule="evenodd" clip-rule="evenodd" d="M20.7802 24.0518C20.7802 21.4635 21.9846 19.1571 23.8554 17.6708C22.4972 16.5945 20.7546 15.9282 18.8838 15.9282C14.4248 15.9282 10.8115 19.5672 10.8115 24.0518C10.8115 28.5364 14.4248 32.1754 18.8838 32.1754C20.7802 32.1754 22.4972 31.5091 23.8554 30.4328C21.9846 28.9464 20.7802 26.6401 20.7802 24.0518Z" fill="#EB001B"/>
<path fill-rule="evenodd" clip-rule="evenodd" d="M36.9249 24.0518C36.9249 28.5364 33.3116 32.1754 28.8526 32.1754C26.9563 32.1754 25.2393 31.5091 23.8811 30.4328C25.7518 28.9464 26.9563 26.6401 26.9563 24.0518C26.9563 21.4635 25.7518 19.1571 23.8555 17.6708C25.2393 16.5945 26.9819 15.9282 28.8526 15.9282C33.3116 15.9282 36.9249 19.5672 36.9249 24.0518Z" fill="#F79E1B"/>
<path d="M21.8052 4.88325L19.8064 14.1856H17.3975L19.422 4.88325H21.8052ZM31.9533 10.8798L33.209 7.39464L33.9265 10.9055H31.9533V10.8798ZM34.6441 14.1856H36.8736L34.926 4.88325H32.8758C32.4146 4.88325 32.0302 5.13951 31.8508 5.57516L28.2375 14.1856H30.7745L31.2614 12.8018H34.3365L34.6441 14.1856ZM28.3656 11.1361C28.3912 8.67596 24.9573 8.54782 24.9829 7.44589C24.9829 7.11275 25.2904 6.75398 26.008 6.6771C26.3667 6.62584 27.3149 6.60022 28.3912 7.08712L28.8012 5.13951C28.2118 4.90888 27.4687 4.72949 26.5461 4.72949C24.1629 4.72949 22.4972 5.98519 22.4715 7.80466C22.4459 9.13723 23.676 9.90602 24.5729 10.3417C25.4954 10.8029 25.8286 11.1105 25.8286 11.4949C25.8286 12.1355 25.0598 12.3918 24.3935 12.4174C23.1891 12.443 22.4715 12.0843 21.9077 11.828L21.4721 13.8781C22.0359 14.1344 23.0609 14.365 24.1372 14.365C26.6999 14.3394 28.34 13.0837 28.3656 11.1361ZM18.3969 4.88325L14.4761 14.1856H11.9391L9.99148 6.75398C9.88897 6.2927 9.78647 6.13894 9.45332 5.93393C8.86392 5.62642 7.91574 5.3189 7.07007 5.13951L7.12132 4.88325H11.2215C11.7597 4.88325 12.1953 5.24202 12.3235 5.83143L13.3485 11.213L15.8599 4.88325H18.3969Z" fill="#2A2A6C"/>
<defs>
<linearGradient id="paint0_linear_7990_1237" x1="39.2769" y1="45.2397" x2="30.5474" y2="45.2397" gradientUnits="userSpaceOnUse">
<stop stop-color="#1E5CD8"/>
<stop offset="1" stop-color="#02AFFF"/>
</linearGradient>
</defs>
</svg>
