<svg width="20" height="20" viewBox="0 0 20 20" fill="none" xmlns="http://www.w3.org/2000/svg">
<path fill-rule="evenodd" clip-rule="evenodd" d="M0 10C0 4.47717 4.47717 0 10 0C15.5228 0 20 4.47717 20 10C20 15.5228 15.5228 20 10 20C4.47717 20 0 15.5228 0 10ZM10.5231 13.2817C10.5231 13.2817 10.7156 13.2607 10.8142 13.1567C10.9045 13.0615 10.9013 12.8818 10.9013 12.8818C10.9013 12.8818 10.8893 12.0424 11.2864 11.9185C11.6777 11.7966 12.18 12.7302 12.7133 13.0892C13.116 13.3606 13.4217 13.3012 13.4217 13.3012L14.8465 13.2817C14.8465 13.2817 15.5915 13.2366 15.2383 12.6615C15.2091 12.6144 15.0322 12.236 14.1792 11.4586C13.2855 10.6449 13.4055 10.7765 14.4813 9.36871C15.1366 8.51142 15.3985 7.98804 15.3165 7.76429C15.2388 7.55021 14.7567 7.60704 14.7567 7.60704L13.153 7.61679C13.153 7.61679 13.0341 7.60092 12.9459 7.65263C12.8598 7.70333 12.804 7.82162 12.804 7.82162C12.804 7.82162 12.5505 8.48479 12.2119 9.04912C11.4977 10.2393 11.2123 10.3022 11.0954 10.2285C10.8236 10.056 10.8914 9.53617 10.8914 9.16692C10.8914 8.01317 11.0699 7.53229 10.5445 7.40783C10.3702 7.36637 10.2419 7.33921 9.79583 7.33462C9.22354 7.329 8.73938 7.33667 8.46496 7.46829C8.28238 7.55583 8.1415 7.75146 8.22758 7.76275C8.3335 7.77654 8.5735 7.82625 8.70079 7.99625C8.86512 8.21596 8.85938 8.70858 8.85938 8.70858C8.85938 8.70858 8.95383 10.0667 8.63871 10.2352C8.42271 10.3509 8.12638 10.1148 7.48938 9.03479C7.16333 8.48175 6.91708 7.87029 6.91708 7.87029C6.91708 7.87029 6.86958 7.75608 6.78454 7.69462C6.68179 7.62037 6.53829 7.59733 6.53829 7.59733L5.01442 7.60704C5.01442 7.60704 4.78538 7.61321 4.70138 7.711C4.62679 7.79754 4.69562 7.97729 4.69562 7.97729C4.69562 7.97729 5.88879 10.7176 7.24 12.0988C8.47904 13.3647 9.88558 13.2817 9.88558 13.2817H10.5231Z" fill="black"/>
</svg>
