<svg width="45" height="27" viewBox="0 0 45 27" fill="none" xmlns="http://www.w3.org/2000/svg">
<g filter="url(#filter0_d_1_4948)">
<path d="M23.218 25.4738V21.9996C23.0461 21.9996 22.9602 21.9996 22.8743 21.9996C20.8979 21.9003 18.8357 21.9003 16.8593 21.7018C15.4845 21.6026 14.0237 21.3048 12.6489 21.1062C11.5318 20.9077 10.4148 20.7092 9.29772 20.4114C7.92288 20.0144 6.54803 19.518 5.17319 19.0217C3.9702 18.5254 2.85314 17.9299 1.82201 17.0365C1.30644 16.6394 0.790879 16.0439 0.533096 15.349C0.0175297 14.3564 0.103457 13.066 0.790878 12.1726C1.39237 11.2793 2.16572 10.5845 3.11092 9.98888C4.22798 9.29404 5.43097 8.69847 6.63396 8.30142C7.49324 8.00363 8.35251 7.70585 9.29772 7.50732C9.29772 7.80511 9.29772 8.1029 9.29772 8.49995C9.29772 8.59921 9.12586 8.69847 8.95401 8.79773C7.40731 9.19478 5.94654 9.88962 4.65762 10.783C4.22798 11.0808 3.79835 11.5771 3.36871 11.9741C2.59536 12.9667 2.76721 13.9594 3.45463 14.8527C4.05613 15.5476 4.65762 16.0439 5.43097 16.4409C6.63396 17.1358 8.0088 17.6321 9.29772 17.9299C10.7585 18.3269 12.3052 18.6247 13.766 18.8232C16.8593 19.3195 19.8668 19.518 22.9602 19.518H23.218V15.9446C23.3039 15.9446 23.3899 16.0439 23.3899 16.1431C24.6788 17.6321 25.8818 19.0217 27.1707 20.5107C27.4285 20.7092 27.3425 20.9077 27.1707 21.1062C25.8818 22.4959 24.6788 23.9848 23.3899 25.3745C23.3899 25.2752 23.3039 25.2753 23.218 25.4738Z" fill="#8A8A8A"/>
<path d="M29.2346 21.5979V19.0171C29.4065 19.0171 29.4924 18.9179 29.6643 18.9179C31.2969 18.6201 32.9295 18.3223 34.5621 18.0245C36.1088 17.7267 37.6555 17.2304 39.1163 16.4363C39.8896 16.0393 40.663 15.543 41.3504 14.9474C42.3815 13.8555 42.3815 12.5651 41.3504 11.4732C40.7489 10.8777 40.0615 10.2821 39.2882 9.98431C38.5148 9.58727 37.6555 9.28948 36.7963 8.89244C36.7103 8.89244 36.6244 8.79317 36.6244 8.69391C36.6244 8.39613 36.6244 8.09834 36.6244 7.70129C37.2259 7.89982 37.8274 7.99908 38.3429 8.29686C39.3741 8.79317 40.4911 9.19022 41.5223 9.78579C42.5534 10.2821 43.4127 11.0762 44.1001 12.0688C44.9594 13.26 44.9594 15.0467 43.9282 16.1385C43.1549 17.0319 42.2097 17.826 41.1786 18.3223C40.0615 18.9179 38.9444 19.3149 37.7415 19.8112C36.8822 20.109 35.937 20.4068 34.9918 20.6053C33.4451 20.9031 31.9843 21.2009 30.4376 21.4987C30.1798 21.4987 29.7502 21.5979 29.2346 21.5979Z" fill="#8A8A8A"/>
<path d="M36.8814 0.65625C35.8502 0.65625 34.991 1.64887 34.991 2.84001C34.991 4.03116 35.8502 5.02378 36.8814 5.02378C37.9125 5.02378 38.7718 4.03116 38.7718 2.84001C38.8577 1.64887 37.9985 0.65625 36.8814 0.65625C36.9673 0.65625 36.8814 0.65625 36.8814 0.65625ZM36.8814 4.03116C36.2799 4.03116 35.8503 3.53485 35.8503 2.84001C35.8503 2.14518 36.2799 1.64887 36.8814 1.64887C37.4829 1.64887 37.9125 2.14518 37.9125 2.84001C37.9125 3.53485 37.4829 4.03116 36.8814 4.03116Z" fill="#8A8A8A"/>
<path d="M11.1069 11.178C11.8802 11.6743 12.8254 11.9721 13.6847 11.9721C15.3173 11.9721 15.9188 10.9795 15.8329 10.0861C15.8329 8.69646 14.6299 8.10088 13.4269 8.10088H12.3099V6.51268H13.341C14.2862 6.51268 15.4033 6.01637 15.4033 4.92447C15.4033 4.13037 14.8877 3.43553 13.6847 3.43553C12.8254 3.43553 12.0521 3.73332 11.3647 4.22964L11.021 2.64143C11.9662 1.94659 13.0832 1.6488 14.2862 1.6488C16.5203 1.6488 17.6374 3.03848 17.6374 4.52742C17.6374 5.71858 16.95 6.81047 15.6611 7.30678C16.95 7.60457 17.9811 8.69646 17.9811 10.2847C17.9811 12.2699 16.4344 13.8581 13.7706 13.8581C12.6536 13.8581 11.6225 13.5603 10.6772 12.9648L11.1069 11.178Z" fill="#8B8A8A"/>
<path d="M25.2806 3.5348C24.9369 3.5348 24.5932 3.5348 24.2494 3.5348C21.9294 3.83258 20.7264 5.22226 20.5546 6.90973C21.242 6.11563 22.1013 5.71858 23.0465 5.71858C24.9369 5.71858 26.4836 7.20752 26.4836 9.58982C26.4836 11.9721 24.765 13.8581 22.7027 13.8581H22.6168C19.9531 13.8581 18.4923 11.6743 18.4923 8.69646C18.4064 6.7112 19.0938 4.82521 20.3827 3.43553C21.4998 2.34364 22.8746 1.74807 24.3354 1.6488C24.6791 1.6488 25.0228 1.6488 25.3665 1.6488L25.2806 3.5348ZM24.3354 9.78835C24.4213 8.5972 23.648 7.50531 22.6168 7.40604C22.5309 7.40604 22.445 7.40604 22.359 7.40604C21.5857 7.40604 20.8983 7.90236 20.4686 8.69646C20.3827 8.89498 20.2968 9.09351 20.2968 9.29204C20.3827 10.6817 20.9842 12.0714 22.445 12.0714C23.6479 12.0714 24.4213 11.0788 24.3354 9.78835Z" fill="#8B8A8A"/>
<path d="M34.6554 7.70383C34.6554 11.2773 33.3665 13.8581 30.6168 13.8581C28.1248 13.8581 26.75 11.4758 26.75 7.80309C26.75 4.13037 28.2108 1.6488 30.7027 1.6488C33.2805 1.6488 34.6554 4.13037 34.6554 7.70383ZM28.7263 7.80309C28.7263 10.6817 29.4997 12.1707 30.6168 12.1707C31.9057 12.1707 32.5072 10.5825 32.5072 7.80309C32.5072 5.02374 31.8198 3.43553 30.6168 3.43553C29.5856 3.43553 28.7263 4.82521 28.7263 7.80309Z" fill="#8B8A8A"/>
</g>
<defs>
<filter id="filter0_d_1_4948" x="0.20166" y="0.65625" width="44.5229" height="25.8502" filterUnits="userSpaceOnUse" color-interpolation-filters="sRGB">
<feFlood flood-opacity="0" result="BackgroundImageFix"/>
<feColorMatrix in="SourceAlpha" type="matrix" values="0 0 0 0 0 0 0 0 0 0 0 0 0 0 0 0 0 0 127 0" result="hardAlpha"/>
<feOffset dy="1.03273"/>
<feColorMatrix type="matrix" values="0 0 0 0 1 0 0 0 0 1 0 0 0 0 1 0 0 0 1 0"/>
<feBlend mode="normal" in2="BackgroundImageFix" result="effect1_dropShadow_1_4948"/>
<feBlend mode="normal" in="SourceGraphic" in2="effect1_dropShadow_1_4948" result="shape"/>
</filter>
</defs>
</svg>
