<svg width="48" height="48" viewBox="0 0 48 48" fill="none" xmlns="http://www.w3.org/2000/svg">
<g opacity="0.9">
<path opacity="0.9" fill-rule="evenodd" clip-rule="evenodd" d="M9.08398 21.6284C9.08398 19.503 9.21053 18.1278 13.6395 14.8772C17.4357 12.2517 29.0775 3 29.0775 3V18.3778H37.9354V40.5069H11.8679C10.3494 40.5069 9.08398 39.2566 9.08398 37.7563V21.6284Z" fill="#FFCF01"/>
<path opacity="0.9" fill-rule="evenodd" clip-rule="evenodd" d="M30.1161 18.868V27.887L14.1331 39.064L34.3291 32.332V18.868H30.1161Z" fill="#D3AB07"/>
<path opacity="0.9" fill-rule="evenodd" clip-rule="evenodd" d="M23.5892 17.9606C24.5669 16.759 25.9113 16.3585 26.6446 17.026C27.3779 17.6936 27.2557 19.2957 26.278 20.4973C25.3002 21.6989 23.9558 22.0994 23.2225 21.4319C22.4892 20.7643 22.7337 19.1622 23.5892 17.9606Z" fill="black"/>
</g>
</svg>
